M48
; DRILL file {KiCad 9.0.7} date 2026-08-23T19:54:57+0700
; FORMAT={-:-/ absolute / metric / decimal}
; #@! TF.CreationDate,2026-08-23T19:54:57+07:00
; #@! TF.GenerationSoftware,Kicad,Pcbnew,9.0.7
; #@! TF.FileFunction,Plated,1,2,PTH
FMAT,2
METRIC
; #@! TA.AperFunction,Plated,PTH,ViaDrill
T1C0.300
; #@! TA.AperFunction,Plated,PTH,ComponentDrill
T2C0.700
; #@! TA.AperFunction,Plated,PTH,ComponentDrill
T3C0.750
; #@! TA.AperFunction,Plated,PTH,ComponentDrill
T4C0.762
; #@! TA.AperFunction,Plated,PTH,ComponentDrill
T5C1.000
; #@! TA.AperFunction,Plated,PTH,ComponentDrill
T6C1.016
; #@! TA.AperFunction,Plated,PTH,ComponentDrill
T7C1.200
%
G90
G05
T1
X147.12Y-104.17
X147.12Y-105.77
X147.12Y-107.37
X148.4Y-104.17
X148.4Y-105.77
X148.4Y-107.37
X149.59Y-104.17
X149.59Y-105.77
X149.59Y-107.37
X159.07Y-107.24
X159.07Y-108.84
X159.07Y-110.44
X160.35Y-107.24
X160.35Y-108.84
X160.35Y-110.44
X161.54Y-107.24
X161.54Y-108.84
X161.54Y-110.44
X175.46Y-104.17
X175.46Y-105.77
X175.46Y-107.37
X176.74Y-104.17
X176.74Y-105.77
X176.74Y-107.37
X177.93Y-104.17
X177.93Y-105.77
X177.93Y-107.37
X178.4Y-87.71
X178.4Y-89.68
X178.4Y-91.58
X183.49Y-87.3
X183.49Y-89.39
X183.49Y-91.54
X187.28Y-87.31
X187.28Y-89.4
X187.28Y-91.55
X188.8Y-87.31
X188.8Y-89.4
X188.8Y-91.55
X189.69Y-104.17
X189.69Y-105.77
X189.69Y-107.37
X190.13Y-87.31
X190.13Y-89.4
X190.13Y-91.55
X190.97Y-104.17
X190.97Y-105.77
X190.97Y-107.37
X192.16Y-104.17
X192.16Y-105.77
X192.16Y-107.37
X193.68Y-92.21
X193.69Y-89.4
X196.13Y-86.09
X197.87Y-84.35
X202.37Y-107.97
X204.88Y-107.97
X210.0Y-87.9
X210.0Y-90.1
X210.0Y-92.0
X211.0Y-87.9
X211.0Y-90.1
X211.0Y-92.0
X212.1Y-87.9
X212.1Y-90.1
X212.1Y-92.0
X212.68Y-107.97
X213.1Y-87.9
X213.1Y-90.1
X213.1Y-92.0
X216.26Y-106.42
X218.42Y-104.1
T2
X223.6Y-92.21
X223.6Y-94.21
X223.6Y-96.21
T3
X224.2Y-58.1
X224.2Y-60.1
X224.2Y-62.1
X224.2Y-64.1
X224.2Y-66.1
X224.2Y-68.1
X224.2Y-75.67
X224.2Y-77.67
X224.2Y-79.67
X224.2Y-81.67
X224.2Y-83.67
X224.2Y-85.67
T4
X164.46Y-97.1
X164.46Y-112.34
X167.0Y-97.1
X167.0Y-112.34
X169.54Y-97.1
X169.54Y-112.34
X172.08Y-97.1
X172.08Y-112.34
X174.62Y-97.1
X174.62Y-112.34
X177.16Y-97.1
X177.16Y-112.34
X179.7Y-97.1
X179.7Y-112.34
X182.24Y-97.1
X182.24Y-112.34
X184.78Y-97.1
X184.78Y-112.34
X187.32Y-97.1
X187.32Y-112.34
X189.86Y-97.1
X189.86Y-112.34
X192.4Y-97.1
X192.4Y-112.34
X194.94Y-97.1
X194.94Y-112.34
X197.48Y-97.1
X197.48Y-112.34
X200.02Y-97.1
X200.02Y-112.34
X202.56Y-97.1
X202.56Y-112.34
X205.1Y-97.1
X205.1Y-112.34
X207.64Y-97.1
X207.64Y-112.34
X210.18Y-97.1
X210.18Y-112.34
X212.72Y-97.1
X212.72Y-112.34
T5
X133.26Y-95.79
X133.26Y-98.33
X133.26Y-100.87
X133.26Y-103.41
X133.26Y-105.95
X133.26Y-108.49
X133.26Y-111.03
X133.26Y-113.57
T6
X161.6Y-81.2
X161.6Y-83.74
X161.6Y-86.28
X161.6Y-88.82
X167.86Y-81.2
X170.4Y-81.2
X188.93Y-81.2
X191.47Y-81.2
X200.52Y-81.2
X203.06Y-81.2
X205.6Y-81.2
T7
X206.22Y-55.08
X209.72Y-55.08
X214.33Y-55.08
X217.83Y-55.08
M30
