%TF.GenerationSoftware,KiCad,Pcbnew,9.0.7*%
%TF.CreationDate,2026-08-23T19:54:50+07:00*%
%TF.ProjectId,Stm32,53746d33-322e-46b6-9963-61645f706362,rev?*%
%TF.SameCoordinates,Original*%
%TF.FileFunction,Copper,L1,Top*%
%TF.FilePolarity,Positive*%
%FSLAX46Y46*%
G04 Gerber Fmt 4.6, Leading zero omitted, Abs format (unit mm)*
G04 Created by KiCad (PCBNEW 9.0.7) date 2026-08-23 19:54:50*
%MOMM*%
%LPD*%
G01*
G04 APERTURE LIST*
G04 Aperture macros list*
%AMRoundRect*
0 Rectangle with rounded corners*
0 $1 Rounding radius*
0 $2 $3 $4 $5 $6 $7 $8 $9 X,Y pos of 4 corners*
0 Add a 4 corners polygon primitive as box body*
4,1,4,$2,$3,$4,$5,$6,$7,$8,$9,$2,$3,0*
0 Add four circle primitives for the rounded corners*
1,1,$1+$1,$2,$3*
1,1,$1+$1,$4,$5*
1,1,$1+$1,$6,$7*
1,1,$1+$1,$8,$9*
0 Add four rect primitives between the rounded corners*
20,1,$1+$1,$2,$3,$4,$5,0*
20,1,$1+$1,$4,$5,$6,$7,0*
20,1,$1+$1,$6,$7,$8,$9,0*
20,1,$1+$1,$8,$9,$2,$3,0*%
%AMOutline4P*
0 Free polygon, 4 corners , with rotation*
0 The origin of the aperture is its center*
0 number of corners: always 4*
0 $1 to $8 corner X, Y*
0 $9 Rotation angle, in degrees counterclockwise*
0 create outline with 4 corners*
4,1,4,$1,$2,$3,$4,$5,$6,$7,$8,$1,$2,$9*%
%AMOutline5P*
0 Free polygon, 5 corners , with rotation*
0 The origin of the aperture is its center*
0 number of corners: always 5*
0 $1 to $10 corner X, Y*
0 $11 Rotation angle, in degrees counterclockwise*
0 create outline with 5 corners*
4,1,5,$1,$2,$3,$4,$5,$6,$7,$8,$9,$10,$1,$2,$11*%
%AMOutline6P*
0 Free polygon, 6 corners , with rotation*
0 The origin of the aperture is its center*
0 number of corners: always 6*
0 $1 to $12 corner X, Y*
0 $13 Rotation angle, in degrees counterclockwise*
0 create outline with 6 corners*
4,1,6,$1,$2,$3,$4,$5,$6,$7,$8,$9,$10,$11,$12,$1,$2,$13*%
%AMOutline7P*
0 Free polygon, 7 corners , with rotation*
0 The origin of the aperture is its center*
0 number of corners: always 7*
0 $1 to $14 corner X, Y*
0 $15 Rotation angle, in degrees counterclockwise*
0 create outline with 7 corners*
4,1,7,$1,$2,$3,$4,$5,$6,$7,$8,$9,$10,$11,$12,$13,$14,$1,$2,$15*%
%AMOutline8P*
0 Free polygon, 8 corners , with rotation*
0 The origin of the aperture is its center*
0 number of corners: always 8*
0 $1 to $16 corner X, Y*
0 $17 Rotation angle, in degrees counterclockwise*
0 create outline with 8 corners*
4,1,8,$1,$2,$3,$4,$5,$6,$7,$8,$9,$10,$11,$12,$13,$14,$15,$16,$1,$2,$17*%
G04 Aperture macros list end*
%TA.AperFunction,ComponentPad*%
%ADD10R,1.700000X1.700000*%
%TD*%
%TA.AperFunction,ComponentPad*%
%ADD11C,1.700000*%
%TD*%
%TA.AperFunction,ComponentPad*%
%ADD12Outline4P,-0.762000X0.762000X0.762000X0.762000X0.762000X-0.762000X-0.762000X-0.762000X90.000000*%
%TD*%
%TA.AperFunction,ComponentPad*%
%ADD13Outline8P,-0.762000X0.350520X-0.350520X0.762000X0.350520X0.762000X0.762000X0.350520X0.762000X-0.350520X0.350520X-0.762000X-0.350520X-0.762000X-0.762000X-0.350520X90.000000*%
%TD*%
%TA.AperFunction,ComponentPad*%
%ADD14C,1.879600*%
%TD*%
%TA.AperFunction,ComponentPad*%
%ADD15R,2.500000X2.500000*%
%TD*%
%TA.AperFunction,ComponentPad*%
%ADD16C,2.500000*%
%TD*%
%TA.AperFunction,ComponentPad*%
%ADD17RoundRect,0.250000X0.625000X-0.350000X0.625000X0.350000X-0.625000X0.350000X-0.625000X-0.350000X0*%
%TD*%
%TA.AperFunction,ComponentPad*%
%ADD18O,1.750000X1.200000*%
%TD*%
%TA.AperFunction,ComponentPad*%
%ADD19C,1.600000*%
%TD*%
%TA.AperFunction,ViaPad*%
%ADD20C,0.600000*%
%TD*%
%TA.AperFunction,Conductor*%
%ADD21C,0.300000*%
%TD*%
G04 APERTURE END LIST*
D10*
%TO.P,J8,1,Pin_1*%
%TO.N,/3V3*%
X133260000Y-95790000D03*
D11*
%TO.P,J8,2,Pin_2*%
%TO.N,GND*%
X133260000Y-98330000D03*
%TO.P,J8,3,Pin_3*%
%TO.N,/PB8*%
X133260000Y-100870000D03*
%TO.P,J8,4,Pin_4*%
%TO.N,/PB9*%
X133260000Y-103410000D03*
%TO.P,J8,5,Pin_5*%
%TO.N,unconnected-(J8-Pin_5-Pad5)*%
X133260000Y-105950000D03*
%TO.P,J8,6,Pin_6*%
%TO.N,unconnected-(J8-Pin_6-Pad6)*%
X133260000Y-108490000D03*
%TO.P,J8,7,Pin_7*%
%TO.N,unconnected-(J8-Pin_7-Pad7)*%
X133260000Y-111030000D03*
%TO.P,J8,8,Pin_8*%
%TO.N,unconnected-(J8-Pin_8-Pad8)*%
X133260000Y-113570000D03*
%TD*%
D12*
%TO.P,U1,1,B12*%
%TO.N,unconnected-(U1-B12-Pad1)*%
X164460000Y-112340000D03*
D13*
%TO.P,U1,2,B13*%
%TO.N,unconnected-(U1-B13-Pad2)*%
X167000000Y-112340000D03*
%TO.P,U1,3,B14*%
%TO.N,unconnected-(U1-B14-Pad3)*%
X169540000Y-112340000D03*
%TO.P,U1,4,B15*%
%TO.N,unconnected-(U1-B15-Pad4)*%
X172080000Y-112340000D03*
%TO.P,U1,5,A8*%
%TO.N,unconnected-(U1-A8-Pad5)*%
X174620000Y-112340000D03*
%TO.P,U1,6,A9*%
%TO.N,/PA9*%
X177160000Y-112340000D03*
%TO.P,U1,7,A10*%
%TO.N,/PA10*%
X179700000Y-112340000D03*
%TO.P,U1,8,A11*%
%TO.N,unconnected-(U1-A11-Pad8)*%
X182240000Y-112340000D03*
%TO.P,U1,9,A12*%
%TO.N,unconnected-(U1-A12-Pad9)*%
X184780000Y-112340000D03*
%TO.P,U1,10,A15*%
%TO.N,unconnected-(U1-A15-Pad10)*%
X187320000Y-112340000D03*
%TO.P,U1,11,B3*%
%TO.N,unconnected-(U1-B3-Pad11)*%
X189860000Y-112340000D03*
%TO.P,U1,12,B4*%
%TO.N,unconnected-(U1-B4-Pad12)*%
X192400000Y-112340000D03*
%TO.P,U1,13,B5*%
%TO.N,unconnected-(U1-B5-Pad13)*%
X194940000Y-112340000D03*
%TO.P,U1,14,B6*%
%TO.N,/PB6*%
X197480000Y-112340000D03*
%TO.P,U1,15,B7*%
%TO.N,/PB7*%
X200020000Y-112340000D03*
%TO.P,U1,16,B8*%
%TO.N,/PB8*%
X202560000Y-112340000D03*
%TO.P,U1,17,B9*%
%TO.N,/PB9*%
X205100000Y-112340000D03*
%TO.P,U1,18,5V*%
%TO.N,5V*%
X207640000Y-112340000D03*
%TO.P,U1,19,G*%
%TO.N,GND*%
X210180000Y-112340000D03*
%TO.P,U1,20,3.3V*%
%TO.N,/3V3*%
X212720000Y-112340000D03*
%TO.P,U1,21,VBat*%
%TO.N,unconnected-(U1-VBat-Pad21)*%
X212720000Y-97100000D03*
%TO.P,U1,22,C13*%
%TO.N,unconnected-(U1-C13-Pad22)*%
X210180000Y-97100000D03*
%TO.P,U1,23,C14*%
%TO.N,unconnected-(U1-C14-Pad23)*%
X207640000Y-97100000D03*
%TO.P,U1,24,C15*%
%TO.N,unconnected-(U1-C15-Pad24)*%
X205100000Y-97100000D03*
%TO.P,U1,25,NRST*%
%TO.N,unconnected-(U1-NRST-Pad25)*%
X202560000Y-97100000D03*
%TO.P,U1,26,A0*%
%TO.N,/PA0*%
X200020000Y-97100000D03*
%TO.P,U1,27,A1*%
%TO.N,/PA1*%
X197480000Y-97100000D03*
%TO.P,U1,28,A2*%
%TO.N,/PA2*%
X194940000Y-97100000D03*
%TO.P,U1,29,A3*%
%TO.N,/PA3*%
X192400000Y-97100000D03*
%TO.P,U1,30,A4*%
%TO.N,unconnected-(U1-A4-Pad30)*%
X189860000Y-97100000D03*
%TO.P,U1,31,A5*%
%TO.N,unconnected-(U1-A5-Pad31)*%
X187320000Y-97100000D03*
%TO.P,U1,32,A6*%
%TO.N,/PA6*%
X184780000Y-97100000D03*
%TO.P,U1,33,A7*%
%TO.N,/PA7*%
X182240000Y-97100000D03*
%TO.P,U1,34,B0*%
%TO.N,/PB0*%
X179700000Y-97100000D03*
%TO.P,U1,35,B1*%
%TO.N,/PB1*%
X177160000Y-97100000D03*
%TO.P,U1,36,B2*%
%TO.N,unconnected-(U1-B2-Pad36)*%
X174620000Y-97100000D03*
%TO.P,U1,37,B10*%
%TO.N,unconnected-(U1-B10-Pad37)*%
X172080000Y-97100000D03*
%TO.P,U1,38,3.3V*%
%TO.N,/3V3*%
X169540000Y-97100000D03*
%TO.P,U1,39,G*%
%TO.N,GND*%
X167000000Y-97100000D03*
%TO.P,U1,40,5V*%
%TO.N,unconnected-(U1-5V-Pad40)*%
X164460000Y-97100000D03*
%TD*%
D14*
%TO.P,J5,1,Pin_1*%
%TO.N,/PA3*%
X200520000Y-81200000D03*
%TO.P,J5,2,Pin_2*%
%TO.N,/PA2*%
X203060000Y-81200000D03*
%TO.P,J5,3,Pin_3*%
%TO.N,GND*%
X205600000Y-81200000D03*
%TD*%
D15*
%TO.P,J11,1,Pin_1*%
%TO.N,/M2+*%
X209720000Y-55080000D03*
D16*
%TO.P,J11,2,Pin_2*%
%TO.N,/M2-*%
X206220000Y-55080000D03*
%TD*%
D14*
%TO.P,J6,1,Pin_1*%
%TO.N,/PA6*%
X188930000Y-81200000D03*
%TO.P,J6,2,Pin_2*%
%TO.N,/PA7*%
X191470000Y-81200000D03*
%TD*%
D17*
%TO.P,J3,1,Pin_1*%
%TO.N,/M1-*%
X224200000Y-68100000D03*
D18*
%TO.P,J3,2,Pin_2*%
%TO.N,GND*%
X224200000Y-66100000D03*
%TO.P,J3,3,Pin_3*%
%TO.N,/PA1*%
X224200000Y-64100000D03*
%TO.P,J3,4,Pin_4*%
%TO.N,/PA0*%
X224200000Y-62100000D03*
%TO.P,J3,5,Pin_5*%
%TO.N,/3V3*%
X224200000Y-60100000D03*
%TO.P,J3,6,Pin_6*%
%TO.N,/M1+*%
X224200000Y-58100000D03*
%TD*%
D14*
%TO.P,J1,1,Pin_1*%
%TO.N,unconnected-(J1-Pin_1-Pad1)*%
X161600000Y-81200000D03*
%TO.P,J1,2,Pin_2*%
%TO.N,/PA10*%
X161600000Y-83740000D03*
%TO.P,J1,3,Pin_3*%
%TO.N,/PA9*%
X161600000Y-86280000D03*
%TO.P,J1,4,Pin_4*%
%TO.N,GND*%
X161600000Y-88820000D03*
%TD*%
D17*
%TO.P,J4,1,Pin_1*%
%TO.N,/M2-*%
X224200000Y-85670000D03*
D18*
%TO.P,J4,2,Pin_2*%
%TO.N,GND*%
X224200000Y-83670000D03*
%TO.P,J4,3,Pin_3*%
%TO.N,/PB7*%
X224200000Y-81670000D03*
%TO.P,J4,4,Pin_4*%
%TO.N,/PB6*%
X224200000Y-79670000D03*
%TO.P,J4,5,Pin_5*%
%TO.N,/3V3*%
X224200000Y-77670000D03*
%TO.P,J4,6,Pin_6*%
%TO.N,/M2+*%
X224200000Y-75670000D03*
%TD*%
D15*
%TO.P,J2,1,Pin_1*%
%TO.N,/M1+*%
X217830000Y-55080000D03*
D16*
%TO.P,J2,2,Pin_2*%
%TO.N,/M1-*%
X214330000Y-55080000D03*
%TD*%
D19*
%TO.P,J10,1,1*%
%TO.N,unconnected-(J10-Pad1)*%
X223600000Y-92210000D03*
%TO.P,J10,2,2*%
%TO.N,5V*%
X223600000Y-94210000D03*
%TO.P,J10,3,3*%
%TO.N,GND*%
X223600000Y-96210000D03*
%TD*%
D14*
%TO.P,J7,1,Pin_1*%
%TO.N,/PB0*%
X167860000Y-81200000D03*
%TO.P,J7,2,Pin_2*%
%TO.N,/PB1*%
X170400000Y-81200000D03*
%TD*%
D20*
%TO.N,GND*%
X175460000Y-104170000D03*
X177930000Y-107370000D03*
X176740000Y-105770000D03*
X177930000Y-104170000D03*
X175460000Y-105770000D03*
X177930000Y-105770000D03*
X175460000Y-107370000D03*
X176740000Y-107370000D03*
X176740000Y-104170000D03*
X192160000Y-107370000D03*
X190970000Y-105770000D03*
X189690000Y-105770000D03*
X189690000Y-104170000D03*
X192160000Y-105770000D03*
X192160000Y-104170000D03*
X189690000Y-107370000D03*
X190970000Y-107370000D03*
X190970000Y-104170000D03*
X148400000Y-104170000D03*
X148400000Y-107370000D03*
X147120000Y-107370000D03*
X149590000Y-105770000D03*
X147120000Y-104170000D03*
X148400000Y-105770000D03*
X149590000Y-104170000D03*
X149590000Y-107370000D03*
X147120000Y-105770000D03*
X159070000Y-108840000D03*
X202370000Y-107970000D03*
X213100000Y-92000000D03*
X212100000Y-90100000D03*
X210000000Y-90100000D03*
X188800000Y-89400000D03*
X190130000Y-91550000D03*
X212680000Y-107970000D03*
X210000000Y-87900000D03*
X187280000Y-91550000D03*
X193680000Y-92210000D03*
X188800000Y-87310000D03*
X178400000Y-89680000D03*
X190130000Y-89400000D03*
X197870000Y-84350000D03*
X196130000Y-86090000D03*
X187280000Y-89400000D03*
X218420000Y-104100000D03*
X183490000Y-87300000D03*
X161540000Y-107240000D03*
X211000000Y-90100000D03*
X161540000Y-110440000D03*
X193690000Y-89400000D03*
X159070000Y-107240000D03*
X211000000Y-87900000D03*
X212100000Y-87900000D03*
X160350000Y-108840000D03*
X159070000Y-110440000D03*
X210000000Y-92000000D03*
X178400000Y-87710000D03*
X160350000Y-107240000D03*
X161540000Y-108840000D03*
X187280000Y-87310000D03*
X213100000Y-90100000D03*
X160350000Y-110440000D03*
X204880000Y-107970000D03*
X178400000Y-91580000D03*
X212100000Y-92000000D03*
X211000000Y-92000000D03*
X183490000Y-89390000D03*
X188800000Y-91550000D03*
X216260000Y-106420000D03*
X183490000Y-91540000D03*
X213100000Y-87900000D03*
X190130000Y-87310000D03*
%TD*%
D21*
%TO.N,/PA9*%
X159500000Y-87070000D02*
X159500000Y-102000000D01*
X175700000Y-109600000D02*
X177160000Y-111060000D01*
X161600000Y-86280000D02*
X160290000Y-86280000D01*
X167100000Y-109600000D02*
X175700000Y-109600000D01*
X177160000Y-111060000D02*
X177160000Y-112340000D01*
X177160000Y-112250000D02*
X177160000Y-112340000D01*
X159500000Y-102000000D02*
X167100000Y-109600000D01*
X160290000Y-86280000D02*
X159500000Y-87070000D01*
%TO.N,/PA10*%
X179700000Y-115000000D02*
X179700000Y-112340000D01*
X177600000Y-117100000D02*
X179700000Y-115000000D01*
X155990000Y-87180000D02*
X155990000Y-111470000D01*
X161620000Y-117100000D02*
X177600000Y-117100000D01*
X159430000Y-83740000D02*
X155990000Y-87180000D01*
X161600000Y-83740000D02*
X159430000Y-83740000D01*
X155990000Y-111470000D02*
X161620000Y-117100000D01*
%TO.N,/PA0*%
X214100000Y-68900000D02*
X214100000Y-80000000D01*
X220900000Y-62100000D02*
X214100000Y-68900000D01*
X224200000Y-62100000D02*
X220900000Y-62100000D01*
X200020000Y-94080000D02*
X200020000Y-97100000D01*
X214100000Y-80000000D02*
X200020000Y-94080000D01*
%TO.N,/PA7*%
X187000000Y-78750000D02*
X190870000Y-78750000D01*
X190870000Y-78750000D02*
X191470000Y-79350000D01*
X182200000Y-83550000D02*
X187000000Y-78750000D01*
X182200000Y-97060000D02*
X182200000Y-83550000D01*
X191470000Y-79350000D02*
X191470000Y-81200000D01*
X182240000Y-97100000D02*
X182200000Y-97060000D01*
%TO.N,/PB1*%
X171900000Y-81200000D02*
X177160000Y-86460000D01*
X170400000Y-81200000D02*
X171900000Y-81200000D01*
X177160000Y-86460000D02*
X177160000Y-97100000D01*
%TO.N,/PA2*%
X203060000Y-81340000D02*
X194940000Y-89460000D01*
X203060000Y-81200000D02*
X203060000Y-81340000D01*
X194940000Y-89460000D02*
X194940000Y-97100000D01*
%TO.N,/PB6*%
X221850000Y-79670000D02*
X218900000Y-82620000D01*
X218900000Y-82620000D02*
X218900000Y-100350000D01*
X200850000Y-106350000D02*
X197480000Y-109720000D01*
X218900000Y-100350000D02*
X212900000Y-106350000D01*
X212900000Y-106350000D02*
X200850000Y-106350000D01*
X224200000Y-79670000D02*
X221850000Y-79670000D01*
X197480000Y-109720000D02*
X197480000Y-112340000D01*
%TO.N,/PA1*%
X217000000Y-98700000D02*
X214100000Y-101600000D01*
X224200000Y-64100000D02*
X222100000Y-64100000D01*
X197480000Y-99780000D02*
X197480000Y-97100000D01*
X199300000Y-101600000D02*
X197480000Y-99780000D01*
X222100000Y-64100000D02*
X217000000Y-69200000D01*
X214100000Y-101600000D02*
X199300000Y-101600000D01*
X217000000Y-69200000D02*
X217000000Y-98700000D01*
%TO.N,/PB7*%
X222380000Y-81670000D02*
X220800000Y-83250000D01*
X216600000Y-109700000D02*
X201300000Y-109700000D01*
X224200000Y-81670000D02*
X222380000Y-81670000D01*
X201300000Y-109700000D02*
X200020000Y-110980000D01*
X220800000Y-83250000D02*
X220800000Y-105500000D01*
X220800000Y-105500000D02*
X216600000Y-109700000D01*
X200020000Y-110980000D02*
X200020000Y-112340000D01*
%TO.N,/PA6*%
X188930000Y-81200000D02*
X187520000Y-81200000D01*
X187520000Y-81200000D02*
X184780000Y-83940000D01*
X184780000Y-83940000D02*
X184780000Y-97100000D01*
%TO.N,/PB0*%
X179700000Y-86250000D02*
X179700000Y-97100000D01*
X172250000Y-78800000D02*
X179700000Y-86250000D01*
X167860000Y-81200000D02*
X167860000Y-79840000D01*
X168900000Y-78800000D02*
X172250000Y-78800000D01*
X167860000Y-79840000D02*
X168900000Y-78800000D01*
%TO.N,/PA3*%
X200520000Y-81200000D02*
X199100000Y-81200000D01*
X192400000Y-87900000D02*
X192400000Y-97100000D01*
X199100000Y-81200000D02*
X192400000Y-87900000D01*
%TD*%
%TA.AperFunction,Conductor*%
%TO.N,GND*%
G36*
X160306011Y-84410185D02*
G01*
X160349456Y-84458205D01*
X160368143Y-84494880D01*
X160368144Y-84494881D01*
X160501394Y-84678286D01*
X160501398Y-84678291D01*
X160661708Y-84838601D01*
X160661713Y-84838605D01*
X160759542Y-84909682D01*
X160802208Y-84965012D01*
X160808187Y-85034625D01*
X160775582Y-85096420D01*
X160759542Y-85110318D01*
X160661713Y-85181394D01*
X160661708Y-85181398D01*
X160501398Y-85341708D01*
X160501394Y-85341713D01*
X160368144Y-85525118D01*
X160368143Y-85525119D01*
X160349456Y-85561795D01*
X160301482Y-85612591D01*
X160238972Y-85629500D01*
X160225929Y-85629500D01*
X160100261Y-85654497D01*
X160100255Y-85654499D01*
X159981874Y-85703534D01*
X159875326Y-85774726D01*
X158994724Y-86655328D01*
X158927945Y-86755270D01*
X158927946Y-86755271D01*
X158923534Y-86761873D01*
X158874499Y-86880255D01*
X158874497Y-86880261D01*
X158849500Y-87005928D01*
X158849500Y-102064070D01*
X158852170Y-102077491D01*
X158868273Y-102158443D01*
X158874499Y-102189744D01*
X158899017Y-102248935D01*
X158923534Y-102308125D01*
X158994726Y-102414673D01*
X166685326Y-110105273D01*
X166685329Y-110105275D01*
X166685331Y-110105277D01*
X166791873Y-110176465D01*
X166910256Y-110225501D01*
X166910260Y-110225501D01*
X166910261Y-110225502D01*
X167035928Y-110250500D01*
X167035931Y-110250500D01*
X175379192Y-110250500D01*
X175446231Y-110270185D01*
X175466873Y-110286819D01*
X176342179Y-111162125D01*
X176375664Y-111223448D01*
X176370680Y-111293140D01*
X176342179Y-111337487D01*
X176015128Y-111664537D01*
X176015115Y-111664551D01*
X175987921Y-111699557D01*
X175931248Y-111740421D01*
X175861478Y-111744158D01*
X175800764Y-111709582D01*
X175792074Y-111699553D01*
X175787240Y-111693331D01*
X175764879Y-111664545D01*
X175570850Y-111470516D01*
X175295462Y-111195128D01*
X175295443Y-111195111D01*
X175228538Y-111143136D01*
X175228537Y-111143135D01*
X175095573Y-111088061D01*
X175095571Y-111088060D01*
X175095570Y-111088060D01*
X175095569Y-111088059D01*
X175095566Y-111088059D01*
X175011500Y-111077500D01*
X175011493Y-111077499D01*
X174228505Y-111077499D01*
X174144433Y-111088059D01*
X174144429Y-111088060D01*
X174011464Y-111143136D01*
X173944545Y-111195121D01*
X173944539Y-111195126D01*
X173475128Y-111664537D01*
X173475115Y-111664551D01*
X173447921Y-111699557D01*
X173391248Y-111740421D01*
X173321478Y-111744158D01*
X173260764Y-111709582D01*
X173252074Y-111699553D01*
X173247240Y-111693331D01*
X173224879Y-111664545D01*
X173030850Y-111470516D01*
X172755462Y-111195128D01*
X172755443Y-111195111D01*
X172688538Y-111143136D01*
X172688537Y-111143135D01*
X172555573Y-111088061D01*
X172555571Y-111088060D01*
X172555570Y-111088060D01*
X172555569Y-111088059D01*
X172555566Y-111088059D01*
X172471500Y-111077500D01*
X172471493Y-111077499D01*
X171688505Y-111077499D01*
X171604433Y-111088059D01*
X171604429Y-111088060D01*
X171471464Y-111143136D01*
X171404545Y-111195121D01*
X171404539Y-111195126D01*
X170935128Y-111664537D01*
X170935115Y-111664551D01*
X170907921Y-111699557D01*
X170851248Y-111740421D01*
X170781478Y-111744158D01*
X170720764Y-111709582D01*
X170712074Y-111699553D01*
X170707240Y-111693331D01*
X170684879Y-111664545D01*
X170490850Y-111470516D01*
X170215462Y-111195128D01*
X170215443Y-111195111D01*
X170148538Y-111143136D01*
X170148537Y-111143135D01*
X170015573Y-111088061D01*
X170015571Y-111088060D01*
X170015570Y-111088060D01*
X170015569Y-111088059D01*
X170015566Y-111088059D01*
X169931500Y-111077500D01*
X169931493Y-111077499D01*
X169148505Y-111077499D01*
X169064433Y-111088059D01*
X169064429Y-111088060D01*
X168931464Y-111143136D01*
X168864545Y-111195121D01*
X168864539Y-111195126D01*
X168395128Y-111664537D01*
X168395115Y-111664551D01*
X168367921Y-111699557D01*
X168311248Y-111740421D01*
X168241478Y-111744158D01*
X168180764Y-111709582D01*
X168172074Y-111699553D01*
X168167240Y-111693331D01*
X168144879Y-111664545D01*
X167950850Y-111470516D01*
X167675462Y-111195128D01*
X167675443Y-111195111D01*
X167608538Y-111143136D01*
X167608537Y-111143135D01*
X167475573Y-111088061D01*
X167475571Y-111088060D01*
X167475570Y-111088060D01*
X167475569Y-111088059D01*
X167475566Y-111088059D01*
X167391500Y-111077500D01*
X167391493Y-111077499D01*
X166608505Y-111077499D01*
X166524433Y-111088059D01*
X166524429Y-111088060D01*
X166391464Y-111143136D01*
X166324545Y-111195121D01*
X166324538Y-111195127D01*
X165931688Y-111587977D01*
X165870365Y-111621462D01*
X165800673Y-111616478D01*
X165744740Y-111574606D01*
X165720717Y-111513549D01*
X165716091Y-111470516D01*
X165665797Y-111335671D01*
X165665793Y-111335664D01*
X165579547Y-111220455D01*
X165579544Y-111220452D01*
X165464335Y-111134206D01*
X165464328Y-111134202D01*
X165329482Y-111083908D01*
X165329483Y-111083908D01*
X165269883Y-111077501D01*
X165269881Y-111077500D01*
X165269873Y-111077500D01*
X165269864Y-111077500D01*
X163650129Y-111077500D01*
X163650123Y-111077501D01*
X163590516Y-111083908D01*
X163455671Y-111134202D01*
X163455664Y-111134206D01*
X163340455Y-111220452D01*
X163340452Y-111220455D01*
X163254206Y-111335664D01*
X163254202Y-111335671D01*
X163203908Y-111470517D01*
X163197501Y-111530116D01*
X163197500Y-111530135D01*
X163197500Y-113149870D01*
X163197501Y-113149876D01*
X163203908Y-113209483D01*
X163254202Y-113344328D01*
X163254206Y-113344335D01*
X163340452Y-113459544D01*
X163340455Y-113459547D01*
X163455664Y-113545793D01*
X163455671Y-113545797D01*
X163590517Y-113596091D01*
X163590516Y-113596091D01*
X163597444Y-113596835D01*
X163650127Y-113602500D01*
X165269872Y-113602499D01*
X165329483Y-113596091D01*
X165464331Y-113545796D01*
X165579546Y-113459546D01*
X165665796Y-113344331D01*
X165716091Y-113209483D01*
X165720718Y-113166444D01*
X165747455Y-113101897D01*
X165804848Y-113062049D01*
X165874673Y-113059555D01*
X165931688Y-113092022D01*
X166324537Y-113484871D01*
X166324556Y-113484888D01*
X166391461Y-113536863D01*
X166391462Y-113536864D01*
X166413029Y-113545797D01*
X166524430Y-113591940D01*
X166608503Y-113602500D01*
X167391493Y-113602501D01*
X167475569Y-113591940D01*
X167608536Y-113536863D01*
X167675455Y-113484879D01*
X168144882Y-113015451D01*
X168172076Y-112980444D01*
X168228748Y-112939579D01*
X168298517Y-112935840D01*
X168359233Y-112970414D01*
X168367920Y-112980439D01*
X168395121Y-113015455D01*
X168395125Y-113015459D01*
X168395126Y-113015460D01*
X168864537Y-113484871D01*
X168864556Y-113484888D01*
X168931461Y-113536863D01*
X168931462Y-113536864D01*
X168953029Y-113545797D01*
X169064430Y-113591940D01*
X169148503Y-113602500D01*
X169931493Y-113602501D01*
X170015569Y-113591940D01*
X170148536Y-113536863D01*
X170215455Y-113484879D01*
X170684882Y-113015451D01*
X170712076Y-112980444D01*
X170768748Y-112939579D01*
X170838517Y-112935840D01*
X170899233Y-112970414D01*
X170907920Y-112980439D01*
X170935121Y-113015455D01*
X170935125Y-113015459D01*
X170935126Y-113015460D01*
X171404537Y-113484871D01*
X171404556Y-113484888D01*
X171471461Y-113536863D01*
X171471462Y-113536864D01*
X171493029Y-113545797D01*
X171604430Y-113591940D01*
X171688503Y-113602500D01*
X172471493Y-113602501D01*
X172555569Y-113591940D01*
X172688536Y-113536863D01*
X172755455Y-113484879D01*
X173224882Y-113015451D01*
X173252076Y-112980444D01*
X173308748Y-112939579D01*
X173378517Y-112935840D01*
X173439233Y-112970414D01*
X173447920Y-112980439D01*
X173475121Y-113015455D01*
X173475125Y-113015459D01*
X173475126Y-113015460D01*
X173944537Y-113484871D01*
X173944556Y-113484888D01*
X174011461Y-113536863D01*
X174011462Y-113536864D01*
X174033029Y-113545797D01*
X174144430Y-113591940D01*
X174228503Y-113602500D01*
X175011493Y-113602501D01*
X175095569Y-113591940D01*
X175228536Y-113536863D01*
X175295455Y-113484879D01*
X175764882Y-113015451D01*
X175792076Y-112980444D01*
X175848748Y-112939579D01*
X175918517Y-112935840D01*
X175979233Y-112970414D01*
X175987920Y-112980439D01*
X176015121Y-113015455D01*
X176015125Y-113015459D01*
X176015126Y-113015460D01*
X176484537Y-113484871D01*
X176484556Y-113484888D01*
X176551461Y-113536863D01*
X176551462Y-113536864D01*
X176573029Y-113545797D01*
X176684430Y-113591940D01*
X176768503Y-113602500D01*
X177551493Y-113602501D01*
X177635569Y-113591940D01*
X177768536Y-113536863D01*
X177835455Y-113484879D01*
X178304882Y-113015451D01*
X178332076Y-112980444D01*
X178388748Y-112939579D01*
X178458517Y-112935840D01*
X178519233Y-112970414D01*
X178527920Y-112980439D01*
X178555121Y-113015455D01*
X178555125Y-113015459D01*
X178555126Y-113015460D01*
X179013181Y-113473515D01*
X179046666Y-113534838D01*
X179049500Y-113561196D01*
X179049500Y-114679192D01*
X179029815Y-114746231D01*
X179013181Y-114766873D01*
X177366873Y-116413181D01*
X177305550Y-116446666D01*
X177279192Y-116449500D01*
X161940808Y-116449500D01*
X161873769Y-116429815D01*
X161853127Y-116413181D01*
X156676819Y-111236873D01*
X156643334Y-111175550D01*
X156640500Y-111149192D01*
X156640500Y-87500808D01*
X156660185Y-87433769D01*
X156676819Y-87413127D01*
X159663127Y-84426819D01*
X159724450Y-84393334D01*
X159750808Y-84390500D01*
X160238972Y-84390500D01*
X160306011Y-84410185D01*
G37*
%TD.AperFunction*%
%TA.AperFunction,Conductor*%
G36*
X222979391Y-80322041D02*
G01*
X222984752Y-80320955D01*
X223012557Y-80331780D01*
X223041181Y-80340185D01*
X223046114Y-80344844D01*
X223049861Y-80346303D01*
X223074458Y-80371612D01*
X223085586Y-80386928D01*
X223208072Y-80509414D01*
X223208078Y-80509418D01*
X223291023Y-80569683D01*
X223333689Y-80625013D01*
X223339667Y-80694626D01*
X223307061Y-80756421D01*
X223291023Y-80770317D01*
X223208078Y-80830581D01*
X223208069Y-80830588D01*
X223085585Y-80953072D01*
X223074459Y-80968387D01*
X223019128Y-81011052D01*
X222974142Y-81019500D01*
X222315929Y-81019500D01*
X222190261Y-81044497D01*
X222190255Y-81044499D01*
X222071870Y-81093535D01*
X221965331Y-81164722D01*
X221965324Y-81164728D01*
X220294726Y-82835326D01*
X220235145Y-82924498D01*
X220223533Y-82941876D01*
X220174499Y-83060255D01*
X220174497Y-83060261D01*
X220149500Y-83185928D01*
X220149500Y-105179192D01*
X220129815Y-105246231D01*
X220113181Y-105266873D01*
X216366873Y-109013181D01*
X216305550Y-109046666D01*
X216279192Y-109049500D01*
X201235929Y-109049500D01*
X201110261Y-109074497D01*
X201110255Y-109074499D01*
X200991870Y-109123535D01*
X200885331Y-109194722D01*
X200885324Y-109194728D01*
X199514725Y-110565328D01*
X199514724Y-110565329D01*
X199461271Y-110645330D01*
X199461270Y-110645330D01*
X199443536Y-110671870D01*
X199443534Y-110671874D01*
X199394499Y-110790255D01*
X199394497Y-110790261D01*
X199369500Y-110915928D01*
X199369500Y-111118803D01*
X199349815Y-111185842D01*
X199333181Y-111206484D01*
X198875128Y-111664537D01*
X198875115Y-111664551D01*
X198847921Y-111699557D01*
X198791248Y-111740421D01*
X198721478Y-111744158D01*
X198660764Y-111709582D01*
X198652074Y-111699553D01*
X198647240Y-111693331D01*
X198624879Y-111664545D01*
X198430850Y-111470516D01*
X198166819Y-111206485D01*
X198133334Y-111145162D01*
X198130500Y-111118804D01*
X198130500Y-110040808D01*
X198150185Y-109973769D01*
X198166819Y-109953127D01*
X201083127Y-107036819D01*
X201144450Y-107003334D01*
X201170808Y-107000500D01*
X212964071Y-107000500D01*
X213048615Y-106983682D01*
X213089744Y-106975501D01*
X213208127Y-106926465D01*
X213229698Y-106912052D01*
X213229699Y-106912052D01*
X213293282Y-106869567D01*
X213314669Y-106855277D01*
X219405276Y-100764670D01*
X219476465Y-100658127D01*
X219525501Y-100539744D01*
X219550500Y-100414069D01*
X219550500Y-82940808D01*
X219570185Y-82873769D01*
X219586819Y-82853127D01*
X222083127Y-80356819D01*
X222144450Y-80323334D01*
X222170808Y-80320500D01*
X222974142Y-80320500D01*
X222979391Y-80322041D01*
G37*
%TD.AperFunction*%
%TA.AperFunction,Conductor*%
G36*
X223041181Y-62770185D02*
G01*
X223074458Y-62801612D01*
X223085586Y-62816928D01*
X223208072Y-62939414D01*
X223208078Y-62939418D01*
X223291023Y-62999683D01*
X223333689Y-63055013D01*
X223339667Y-63124626D01*
X223307061Y-63186421D01*
X223291023Y-63200317D01*
X223208078Y-63260581D01*
X223208069Y-63260588D01*
X223085585Y-63383072D01*
X223074459Y-63398387D01*
X223019128Y-63441052D01*
X222974142Y-63449500D01*
X222035929Y-63449500D01*
X221910261Y-63474497D01*
X221910255Y-63474499D01*
X221791875Y-63523533D01*
X221791866Y-63523538D01*
X221685331Y-63594723D01*
X221685327Y-63594726D01*
X216494725Y-68785328D01*
X216494719Y-68785336D01*
X216460913Y-68835930D01*
X216460914Y-68835931D01*
X216423534Y-68891874D01*
X216374499Y-69010255D01*
X216374497Y-69010261D01*
X216349500Y-69135928D01*
X216349500Y-98379192D01*
X216329815Y-98446231D01*
X216313181Y-98466873D01*
X213866873Y-100913181D01*
X213805550Y-100946666D01*
X213779192Y-100949500D01*
X199620808Y-100949500D01*
X199553769Y-100929815D01*
X199533127Y-100913181D01*
X198166819Y-99546873D01*
X198133334Y-99485550D01*
X198130500Y-99459192D01*
X198130500Y-98321196D01*
X198150185Y-98254157D01*
X198166819Y-98233515D01*
X198624871Y-97775462D01*
X198624873Y-97775460D01*
X198624882Y-97775451D01*
X198652076Y-97740444D01*
X198708748Y-97699579D01*
X198778517Y-97695840D01*
X198839233Y-97730414D01*
X198847920Y-97740439D01*
X198875121Y-97775455D01*
X198875125Y-97775459D01*
X198875126Y-97775460D01*
X199344537Y-98244871D01*
X199344556Y-98244888D01*
X199411461Y-98296863D01*
X199411462Y-98296864D01*
X199470206Y-98321196D01*
X199544430Y-98351940D01*
X199628503Y-98362500D01*
X200411493Y-98362501D01*
X200495569Y-98351940D01*
X200628536Y-98296863D01*
X200695455Y-98244879D01*
X201164882Y-97775451D01*
X201192076Y-97740444D01*
X201248748Y-97699579D01*
X201318517Y-97695840D01*
X201379233Y-97730414D01*
X201387920Y-97740439D01*
X201415121Y-97775455D01*
X201415125Y-97775459D01*
X201415126Y-97775460D01*
X201884537Y-98244871D01*
X201884556Y-98244888D01*
X201951461Y-98296863D01*
X201951462Y-98296864D01*
X202010206Y-98321196D01*
X202084430Y-98351940D01*
X202168503Y-98362500D01*
X202951493Y-98362501D01*
X203035569Y-98351940D01*
X203168536Y-98296863D01*
X203235455Y-98244879D01*
X203704882Y-97775451D01*
X203732076Y-97740444D01*
X203788748Y-97699579D01*
X203858517Y-97695840D01*
X203919233Y-97730414D01*
X203927920Y-97740439D01*
X203955121Y-97775455D01*
X203955125Y-97775459D01*
X203955126Y-97775460D01*
X204424537Y-98244871D01*
X204424556Y-98244888D01*
X204491461Y-98296863D01*
X204491462Y-98296864D01*
X204550206Y-98321196D01*
X204624430Y-98351940D01*
X204708503Y-98362500D01*
X205491493Y-98362501D01*
X205575569Y-98351940D01*
X205708536Y-98296863D01*
X205775455Y-98244879D01*
X206244882Y-97775451D01*
X206272076Y-97740444D01*
X206328748Y-97699579D01*
X206398517Y-97695840D01*
X206459233Y-97730414D01*
X206467920Y-97740439D01*
X206495121Y-97775455D01*
X206495125Y-97775459D01*
X206495126Y-97775460D01*
X206964537Y-98244871D01*
X206964556Y-98244888D01*
X207031461Y-98296863D01*
X207031462Y-98296864D01*
X207090206Y-98321196D01*
X207164430Y-98351940D01*
X207248503Y-98362500D01*
X208031493Y-98362501D01*
X208115569Y-98351940D01*
X208248536Y-98296863D01*
X208315455Y-98244879D01*
X208784882Y-97775451D01*
X208812076Y-97740444D01*
X208868748Y-97699579D01*
X208938517Y-97695840D01*
X208999233Y-97730414D01*
X209007920Y-97740439D01*
X209035121Y-97775455D01*
X209035125Y-97775459D01*
X209035126Y-97775460D01*
X209504537Y-98244871D01*
X209504556Y-98244888D01*
X209571461Y-98296863D01*
X209571462Y-98296864D01*
X209630206Y-98321196D01*
X209704430Y-98351940D01*
X209788503Y-98362500D01*
X210571493Y-98362501D01*
X210655569Y-98351940D01*
X210788536Y-98296863D01*
X210855455Y-98244879D01*
X211324882Y-97775451D01*
X211352076Y-97740444D01*
X211408748Y-97699579D01*
X211478517Y-97695840D01*
X211539233Y-97730414D01*
X211547920Y-97740439D01*
X211575121Y-97775455D01*
X211575125Y-97775459D01*
X211575126Y-97775460D01*
X212044537Y-98244871D01*
X212044556Y-98244888D01*
X212111461Y-98296863D01*
X212111462Y-98296864D01*
X212170206Y-98321196D01*
X212244430Y-98351940D01*
X212328503Y-98362500D01*
X213111493Y-98362501D01*
X213195569Y-98351940D01*
X213328536Y-98296863D01*
X213395455Y-98244879D01*
X213864882Y-97775451D01*
X213916864Y-97708537D01*
X213971940Y-97575570D01*
X213982500Y-97491497D01*
X213982501Y-96708507D01*
X213971940Y-96624431D01*
X213916863Y-96491464D01*
X213864879Y-96424545D01*
X213864871Y-96424537D01*
X213395462Y-95955128D01*
X213395443Y-95955111D01*
X213328538Y-95903136D01*
X213328537Y-95903135D01*
X213195573Y-95848061D01*
X213195571Y-95848060D01*
X213195570Y-95848060D01*
X213195569Y-95848059D01*
X213195566Y-95848059D01*
X213111500Y-95837500D01*
X213111493Y-95837499D01*
X212328505Y-95837499D01*
X212244433Y-95848059D01*
X212244429Y-95848060D01*
X212111464Y-95903136D01*
X212044545Y-95955121D01*
X212044539Y-95955126D01*
X211575128Y-96424537D01*
X211575115Y-96424551D01*
X211547921Y-96459557D01*
X211491248Y-96500421D01*
X211421478Y-96504158D01*
X211360764Y-96469582D01*
X211352074Y-96459553D01*
X211347240Y-96453331D01*
X211324879Y-96424545D01*
X211324871Y-96424537D01*
X210855462Y-95955128D01*
X210855443Y-95955111D01*
X210788538Y-95903136D01*
X210788537Y-95903135D01*
X210655573Y-95848061D01*
X210655571Y-95848060D01*
X210655570Y-95848060D01*
X210655569Y-95848059D01*
X210655566Y-95848059D01*
X210571500Y-95837500D01*
X210571493Y-95837499D01*
X209788505Y-95837499D01*
X209704433Y-95848059D01*
X209704429Y-95848060D01*
X209571464Y-95903136D01*
X209504545Y-95955121D01*
X209504539Y-95955126D01*
X209035128Y-96424537D01*
X209035115Y-96424551D01*
X209007921Y-96459557D01*
X208951248Y-96500421D01*
X208881478Y-96504158D01*
X208820764Y-96469582D01*
X208812074Y-96459553D01*
X208807240Y-96453331D01*
X208784879Y-96424545D01*
X208784871Y-96424537D01*
X208315462Y-95955128D01*
X208315443Y-95955111D01*
X208248538Y-95903136D01*
X208248537Y-95903135D01*
X208115573Y-95848061D01*
X208115571Y-95848060D01*
X208115570Y-95848060D01*
X208115569Y-95848059D01*
X208115566Y-95848059D01*
X208031500Y-95837500D01*
X208031493Y-95837499D01*
X207248505Y-95837499D01*
X207164433Y-95848059D01*
X207164429Y-95848060D01*
X207031464Y-95903136D01*
X206964545Y-95955121D01*
X206964539Y-95955126D01*
X206495128Y-96424537D01*
X206495115Y-96424551D01*
X206467921Y-96459557D01*
X206411248Y-96500421D01*
X206341478Y-96504158D01*
X206280764Y-96469582D01*
X206272074Y-96459553D01*
X206267240Y-96453331D01*
X206244879Y-96424545D01*
X206244871Y-96424537D01*
X205775462Y-95955128D01*
X205775443Y-95955111D01*
X205708538Y-95903136D01*
X205708537Y-95903135D01*
X205575573Y-95848061D01*
X205575571Y-95848060D01*
X205575570Y-95848060D01*
X205575569Y-95848059D01*
X205575566Y-95848059D01*
X205491500Y-95837500D01*
X205491493Y-95837499D01*
X204708505Y-95837499D01*
X204624433Y-95848059D01*
X204624429Y-95848060D01*
X204491464Y-95903136D01*
X204424545Y-95955121D01*
X204424539Y-95955126D01*
X203955128Y-96424537D01*
X203955115Y-96424551D01*
X203927921Y-96459557D01*
X203871248Y-96500421D01*
X203801478Y-96504158D01*
X203740764Y-96469582D01*
X203732074Y-96459553D01*
X203727240Y-96453331D01*
X203704879Y-96424545D01*
X203704871Y-96424537D01*
X203235462Y-95955128D01*
X203235443Y-95955111D01*
X203168538Y-95903136D01*
X203168537Y-95903135D01*
X203035573Y-95848061D01*
X203035571Y-95848060D01*
X203035570Y-95848060D01*
X203035569Y-95848059D01*
X203035566Y-95848059D01*
X202951500Y-95837500D01*
X202951493Y-95837499D01*
X202168505Y-95837499D01*
X202084433Y-95848059D01*
X202084429Y-95848060D01*
X201951464Y-95903136D01*
X201884545Y-95955121D01*
X201884539Y-95955126D01*
X201415128Y-96424537D01*
X201415115Y-96424551D01*
X201387921Y-96459557D01*
X201331248Y-96500421D01*
X201261478Y-96504158D01*
X201200764Y-96469582D01*
X201192074Y-96459553D01*
X201187240Y-96453331D01*
X201164879Y-96424545D01*
X201164871Y-96424537D01*
X200706819Y-95966485D01*
X200673334Y-95905162D01*
X200670500Y-95878804D01*
X200670500Y-94400808D01*
X200690185Y-94333769D01*
X200706819Y-94313127D01*
X214605273Y-80414673D01*
X214605277Y-80414669D01*
X214676465Y-80308127D01*
X214725501Y-80189744D01*
X214733779Y-80148127D01*
X214750500Y-80064069D01*
X214750500Y-69220807D01*
X214770185Y-69153768D01*
X214786819Y-69133126D01*
X221133126Y-62786819D01*
X221194449Y-62753334D01*
X221220807Y-62750500D01*
X222974142Y-62750500D01*
X223041181Y-62770185D01*
G37*
%TD.AperFunction*%
%TA.AperFunction,Conductor*%
G36*
X171996231Y-79470185D02*
G01*
X172016873Y-79486819D01*
X179013181Y-86483127D01*
X179046666Y-86544450D01*
X179049500Y-86570808D01*
X179049500Y-95878803D01*
X179029815Y-95945842D01*
X179013181Y-95966484D01*
X178555128Y-96424537D01*
X178555115Y-96424551D01*
X178527921Y-96459557D01*
X178471248Y-96500421D01*
X178401478Y-96504158D01*
X178340764Y-96469582D01*
X178332074Y-96459553D01*
X178327240Y-96453331D01*
X178304879Y-96424545D01*
X178304871Y-96424537D01*
X177846819Y-95966485D01*
X177813334Y-95905162D01*
X177810500Y-95878804D01*
X177810500Y-86395928D01*
X177785502Y-86270261D01*
X177785501Y-86270260D01*
X177785501Y-86270256D01*
X177736465Y-86151873D01*
X177691585Y-86084705D01*
X177681772Y-86070019D01*
X177665274Y-86045327D01*
X172314673Y-80694726D01*
X172314669Y-80694723D01*
X172208127Y-80623535D01*
X172208122Y-80623533D01*
X172089744Y-80574499D01*
X172089738Y-80574497D01*
X171964071Y-80549500D01*
X171964069Y-80549500D01*
X171761028Y-80549500D01*
X171693989Y-80529815D01*
X171650544Y-80481795D01*
X171631856Y-80445119D01*
X171631855Y-80445118D01*
X171498605Y-80261713D01*
X171498601Y-80261708D01*
X171338291Y-80101398D01*
X171338286Y-80101394D01*
X171154885Y-79968147D01*
X171154884Y-79968146D01*
X171154882Y-79968145D01*
X171090166Y-79935170D01*
X170952883Y-79865220D01*
X170952880Y-79865219D01*
X170737272Y-79795165D01*
X170558636Y-79766872D01*
X170513354Y-79759700D01*
X170286646Y-79759700D01*
X170241364Y-79766872D01*
X170062727Y-79795165D01*
X169847119Y-79865219D01*
X169847116Y-79865220D01*
X169645114Y-79968147D01*
X169461713Y-80101394D01*
X169461708Y-80101398D01*
X169301398Y-80261708D01*
X169301394Y-80261713D01*
X169230318Y-80359542D01*
X169174988Y-80402208D01*
X169105375Y-80408187D01*
X169043580Y-80375582D01*
X169029682Y-80359542D01*
X168958605Y-80261713D01*
X168958601Y-80261708D01*
X168798295Y-80101402D01*
X168798293Y-80101400D01*
X168753720Y-80069016D01*
X168711056Y-80013687D01*
X168705077Y-79944073D01*
X168737683Y-79882278D01*
X168738838Y-79881106D01*
X169133127Y-79486819D01*
X169194450Y-79453334D01*
X169220808Y-79450500D01*
X171929192Y-79450500D01*
X171996231Y-79470185D01*
G37*
%TD.AperFunction*%
%TA.AperFunction,Conductor*%
G36*
X190616231Y-79420185D02*
G01*
X190636868Y-79436814D01*
X190783182Y-79583127D01*
X190797888Y-79610058D01*
X190814477Y-79635872D01*
X190815368Y-79642071D01*
X190816666Y-79644448D01*
X190819500Y-79670807D01*
X190819500Y-79838971D01*
X190799815Y-79906010D01*
X190751798Y-79949454D01*
X190715116Y-79968145D01*
X190531713Y-80101394D01*
X190531708Y-80101398D01*
X190371398Y-80261708D01*
X190371394Y-80261713D01*
X190300318Y-80359542D01*
X190244988Y-80402208D01*
X190175375Y-80408187D01*
X190113580Y-80375582D01*
X190099682Y-80359542D01*
X190028605Y-80261713D01*
X190028601Y-80261708D01*
X189868291Y-80101398D01*
X189868286Y-80101394D01*
X189684885Y-79968147D01*
X189684884Y-79968146D01*
X189684882Y-79968145D01*
X189620166Y-79935170D01*
X189482883Y-79865220D01*
X189482880Y-79865219D01*
X189267272Y-79795165D01*
X189088636Y-79766872D01*
X189043354Y-79759700D01*
X188816646Y-79759700D01*
X188771364Y-79766872D01*
X188592727Y-79795165D01*
X188377119Y-79865219D01*
X188377116Y-79865220D01*
X188175114Y-79968147D01*
X187991713Y-80101394D01*
X187991708Y-80101398D01*
X187831398Y-80261708D01*
X187831394Y-80261713D01*
X187698144Y-80445118D01*
X187698143Y-80445119D01*
X187679456Y-80481795D01*
X187631482Y-80532591D01*
X187568972Y-80549500D01*
X187455929Y-80549500D01*
X187330261Y-80574497D01*
X187330255Y-80574499D01*
X187211875Y-80623533D01*
X187211866Y-80623538D01*
X187105331Y-80694723D01*
X187105327Y-80694726D01*
X184274722Y-83525331D01*
X184274718Y-83525336D01*
X184252810Y-83558126D01*
X184252810Y-83558127D01*
X184203534Y-83631874D01*
X184154499Y-83750255D01*
X184154497Y-83750261D01*
X184129500Y-83875928D01*
X184129500Y-95878803D01*
X184109815Y-95945842D01*
X184093181Y-95966484D01*
X183635128Y-96424537D01*
X183635115Y-96424551D01*
X183607921Y-96459557D01*
X183551248Y-96500421D01*
X183481478Y-96504158D01*
X183420764Y-96469582D01*
X183412074Y-96459553D01*
X183407240Y-96453331D01*
X183384879Y-96424545D01*
X183384871Y-96424537D01*
X182915464Y-95955130D01*
X182915454Y-95955121D01*
X182915451Y-95955118D01*
X182898425Y-95941891D01*
X182857562Y-95885219D01*
X182850500Y-95843970D01*
X182850500Y-83870808D01*
X182870185Y-83803769D01*
X182886819Y-83783127D01*
X187233127Y-79436819D01*
X187294450Y-79403334D01*
X187320808Y-79400500D01*
X190549192Y-79400500D01*
X190616231Y-79420185D01*
G37*
%TD.AperFunction*%
%TA.AperFunction,Conductor*%
G36*
X199289866Y-82014464D02*
G01*
X199306785Y-82015674D01*
X199321752Y-82026878D01*
X199339172Y-82033661D01*
X199361496Y-82056631D01*
X199362718Y-82057546D01*
X199363770Y-82058971D01*
X199421400Y-82138293D01*
X199581708Y-82298601D01*
X199581713Y-82298605D01*
X199741684Y-82414829D01*
X199765118Y-82431855D01*
X199839982Y-82470000D01*
X199967116Y-82534779D01*
X199967119Y-82534780D01*
X200074923Y-82569807D01*
X200182729Y-82604835D01*
X200406646Y-82640300D01*
X200406647Y-82640300D01*
X200540392Y-82640300D01*
X200607431Y-82659985D01*
X200653186Y-82712789D01*
X200663130Y-82781947D01*
X200634105Y-82845503D01*
X200628073Y-82851981D01*
X194434727Y-89045325D01*
X194434726Y-89045326D01*
X194363534Y-89151874D01*
X194314499Y-89270255D01*
X194314497Y-89270261D01*
X194289500Y-89395928D01*
X194289500Y-95878803D01*
X194269815Y-95945842D01*
X194253181Y-95966484D01*
X193795128Y-96424537D01*
X193795115Y-96424551D01*
X193767921Y-96459557D01*
X193711248Y-96500421D01*
X193641478Y-96504158D01*
X193580764Y-96469582D01*
X193572074Y-96459553D01*
X193567240Y-96453331D01*
X193544879Y-96424545D01*
X193544871Y-96424537D01*
X193086819Y-95966485D01*
X193053334Y-95905162D01*
X193050500Y-95878804D01*
X193050500Y-88220807D01*
X193070185Y-88153768D01*
X193086814Y-88133131D01*
X199175770Y-82044174D01*
X199192177Y-82035215D01*
X199205585Y-82022186D01*
X199222208Y-82018817D01*
X199237093Y-82010690D01*
X199255740Y-82012023D01*
X199274063Y-82008311D01*
X199289866Y-82014464D01*
G37*
%TD.AperFunction*%
%TA.AperFunction,Conductor*%
G36*
X229442539Y-50520185D02*
G01*
X229488294Y-50572989D01*
X229499500Y-50624500D01*
X229499500Y-118375500D01*
X229479815Y-118442539D01*
X229427011Y-118488294D01*
X229375500Y-118499500D01*
X130624500Y-118499500D01*
X130557461Y-118479815D01*
X130511706Y-118427011D01*
X130500500Y-118375500D01*
X130500500Y-100763713D01*
X131909500Y-100763713D01*
X131909500Y-100976286D01*
X131942753Y-101186239D01*
X132008444Y-101388414D01*
X132104951Y-101577820D01*
X132229890Y-101749786D01*
X132380213Y-101900109D01*
X132552182Y-102025050D01*
X132560946Y-102029516D01*
X132611742Y-102077491D01*
X132628536Y-102145312D01*
X132605998Y-102211447D01*
X132560946Y-102250484D01*
X132552182Y-102254949D01*
X132380213Y-102379890D01*
X132229890Y-102530213D01*
X132104951Y-102702179D01*
X132008444Y-102891585D01*
X131942753Y-103093760D01*
X131909500Y-103303713D01*
X131909500Y-103516286D01*
X131942753Y-103726239D01*
X132008444Y-103928414D01*
X132104951Y-104117820D01*
X132229890Y-104289786D01*
X132380213Y-104440109D01*
X132552182Y-104565050D01*
X132560946Y-104569516D01*
X132611742Y-104617491D01*
X132628536Y-104685312D01*
X132605998Y-104751447D01*
X132560946Y-104790484D01*
X132552182Y-104794949D01*
X132380213Y-104919890D01*
X132229890Y-105070213D01*
X132104951Y-105242179D01*
X132008444Y-105431585D01*
X131942753Y-105633760D01*
X131909500Y-105843713D01*
X131909500Y-106056286D01*
X131942753Y-106266239D01*
X132008444Y-106468414D01*
X132104951Y-106657820D01*
X132229890Y-106829786D01*
X132380213Y-106980109D01*
X132552182Y-107105050D01*
X132560946Y-107109516D01*
X132611742Y-107157491D01*
X132628536Y-107225312D01*
X132605998Y-107291447D01*
X132560946Y-107330484D01*
X132552182Y-107334949D01*
X132380213Y-107459890D01*
X132229890Y-107610213D01*
X132104951Y-107782179D01*
X132008444Y-107971585D01*
X131942753Y-108173760D01*
X131909500Y-108383713D01*
X131909500Y-108596287D01*
X131942754Y-108806243D01*
X131997423Y-108974497D01*
X132008444Y-109008414D01*
X132104951Y-109197820D01*
X132229890Y-109369786D01*
X132380213Y-109520109D01*
X132552182Y-109645050D01*
X132560946Y-109649516D01*
X132611742Y-109697491D01*
X132628536Y-109765312D01*
X132605998Y-109831447D01*
X132560946Y-109870484D01*
X132552182Y-109874949D01*
X132380213Y-109999890D01*
X132229890Y-110150213D01*
X132104951Y-110322179D01*
X132008444Y-110511585D01*
X131942754Y-110713757D01*
X131909500Y-110923713D01*
X131909500Y-111136286D01*
X131941079Y-111335671D01*
X131942754Y-111346243D01*
X132002504Y-111530135D01*
X132008444Y-111548414D01*
X132104951Y-111737820D01*
X132229890Y-111909786D01*
X132380213Y-112060109D01*
X132552182Y-112185050D01*
X132560946Y-112189516D01*
X132611742Y-112237491D01*
X132628536Y-112305312D01*
X132605998Y-112371447D01*
X132560946Y-112410484D01*
X132552182Y-112414949D01*
X132380213Y-112539890D01*
X132229890Y-112690213D01*
X132104951Y-112862179D01*
X132008444Y-113051585D01*
X131942753Y-113253760D01*
X131909500Y-113463713D01*
X131909500Y-113676286D01*
X131942753Y-113886239D01*
X132008444Y-114088414D01*
X132104951Y-114277820D01*
X132229890Y-114449786D01*
X132380213Y-114600109D01*
X132552179Y-114725048D01*
X132552181Y-114725049D01*
X132552184Y-114725051D01*
X132741588Y-114821557D01*
X132943757Y-114887246D01*
X133153713Y-114920500D01*
X133153714Y-114920500D01*
X133366286Y-114920500D01*
X133366287Y-114920500D01*
X133576243Y-114887246D01*
X133778412Y-114821557D01*
X133967816Y-114725051D01*
X134030936Y-114679192D01*
X134139786Y-114600109D01*
X134139788Y-114600106D01*
X134139792Y-114600104D01*
X134290104Y-114449792D01*
X134290106Y-114449788D01*
X134290109Y-114449786D01*
X134415048Y-114277820D01*
X134415047Y-114277820D01*
X134415051Y-114277816D01*
X134511557Y-114088412D01*
X134577246Y-113886243D01*
X134610500Y-113676287D01*
X134610500Y-113463713D01*
X134577246Y-113253757D01*
X134511557Y-113051588D01*
X134415051Y-112862184D01*
X134415049Y-112862181D01*
X134415048Y-112862179D01*
X134290109Y-112690213D01*
X134139786Y-112539890D01*
X133967820Y-112414951D01*
X133967115Y-112414591D01*
X133959054Y-112410485D01*
X133908259Y-112362512D01*
X133891463Y-112294692D01*
X133913999Y-112228556D01*
X133959054Y-112189515D01*
X133967816Y-112185051D01*
X133989789Y-112169086D01*
X134139786Y-112060109D01*
X134139788Y-112060106D01*
X134139792Y-112060104D01*
X134290104Y-111909792D01*
X134290106Y-111909788D01*
X134290109Y-111909786D01*
X134415048Y-111737820D01*
X134415047Y-111737820D01*
X134415051Y-111737816D01*
X134511557Y-111548412D01*
X134577246Y-111346243D01*
X134610500Y-111136287D01*
X134610500Y-110923713D01*
X134577246Y-110713757D01*
X134511557Y-110511588D01*
X134415051Y-110322184D01*
X134415049Y-110322181D01*
X134415048Y-110322179D01*
X134290109Y-110150213D01*
X134139786Y-109999890D01*
X133967820Y-109874951D01*
X133967115Y-109874591D01*
X133959054Y-109870485D01*
X133908259Y-109822512D01*
X133891463Y-109754692D01*
X133913999Y-109688556D01*
X133959054Y-109649515D01*
X133967816Y-109645051D01*
X133989789Y-109629086D01*
X134139786Y-109520109D01*
X134139788Y-109520106D01*
X134139792Y-109520104D01*
X134290104Y-109369792D01*
X134290106Y-109369788D01*
X134290109Y-109369786D01*
X134415048Y-109197820D01*
X134415047Y-109197820D01*
X134415051Y-109197816D01*
X134511557Y-109008412D01*
X134577246Y-108806243D01*
X134610500Y-108596287D01*
X134610500Y-108383713D01*
X134577246Y-108173757D01*
X134511557Y-107971588D01*
X134415051Y-107782184D01*
X134415049Y-107782181D01*
X134415048Y-107782179D01*
X134290109Y-107610213D01*
X134139786Y-107459890D01*
X133967820Y-107334951D01*
X133967115Y-107334591D01*
X133959054Y-107330485D01*
X133908259Y-107282512D01*
X133891463Y-107214692D01*
X133913999Y-107148556D01*
X133959054Y-107109515D01*
X133967816Y-107105051D01*
X134061730Y-107036819D01*
X134139786Y-106980109D01*
X134139788Y-106980106D01*
X134139792Y-106980104D01*
X134290104Y-106829792D01*
X134290106Y-106829788D01*
X134290109Y-106829786D01*
X134415048Y-106657820D01*
X134415047Y-106657820D01*
X134415051Y-106657816D01*
X134511557Y-106468412D01*
X134577246Y-106266243D01*
X134610500Y-106056287D01*
X134610500Y-105843713D01*
X134577246Y-105633757D01*
X134511557Y-105431588D01*
X134415051Y-105242184D01*
X134415049Y-105242181D01*
X134415048Y-105242179D01*
X134290109Y-105070213D01*
X134139786Y-104919890D01*
X133967820Y-104794951D01*
X133967115Y-104794591D01*
X133959054Y-104790485D01*
X133908259Y-104742512D01*
X133891463Y-104674692D01*
X133913999Y-104608556D01*
X133959054Y-104569515D01*
X133967816Y-104565051D01*
X133989789Y-104549086D01*
X134139786Y-104440109D01*
X134139788Y-104440106D01*
X134139792Y-104440104D01*
X134290104Y-104289792D01*
X134290106Y-104289788D01*
X134290109Y-104289786D01*
X134415048Y-104117820D01*
X134415047Y-104117820D01*
X134415051Y-104117816D01*
X134511557Y-103928412D01*
X134577246Y-103726243D01*
X134610500Y-103516287D01*
X134610500Y-103303713D01*
X134577246Y-103093757D01*
X134511557Y-102891588D01*
X134415051Y-102702184D01*
X134415049Y-102702181D01*
X134415048Y-102702179D01*
X134290109Y-102530213D01*
X134139786Y-102379890D01*
X133967820Y-102254951D01*
X133967115Y-102254591D01*
X133959054Y-102250485D01*
X133908259Y-102202512D01*
X133891463Y-102134692D01*
X133913999Y-102068556D01*
X133959054Y-102029515D01*
X133967816Y-102025051D01*
X133989789Y-102009086D01*
X134139786Y-101900109D01*
X134139788Y-101900106D01*
X134139792Y-101900104D01*
X134290104Y-101749792D01*
X134290106Y-101749788D01*
X134290109Y-101749786D01*
X134415048Y-101577820D01*
X134415047Y-101577820D01*
X134415051Y-101577816D01*
X134511557Y-101388412D01*
X134577246Y-101186243D01*
X134610500Y-100976287D01*
X134610500Y-100763713D01*
X134577246Y-100553757D01*
X134511557Y-100351588D01*
X134415051Y-100162184D01*
X134415049Y-100162181D01*
X134415048Y-100162179D01*
X134290109Y-99990213D01*
X134139786Y-99839890D01*
X133967820Y-99714951D01*
X133778414Y-99618444D01*
X133778413Y-99618443D01*
X133778412Y-99618443D01*
X133576243Y-99552754D01*
X133576241Y-99552753D01*
X133576240Y-99552753D01*
X133414957Y-99527208D01*
X133366287Y-99519500D01*
X133153713Y-99519500D01*
X133105042Y-99527208D01*
X132943760Y-99552753D01*
X132741585Y-99618444D01*
X132552179Y-99714951D01*
X132380213Y-99839890D01*
X132229890Y-99990213D01*
X132104951Y-100162179D01*
X132008444Y-100351585D01*
X131942753Y-100553760D01*
X131909500Y-100763713D01*
X130500500Y-100763713D01*
X130500500Y-94892135D01*
X131909500Y-94892135D01*
X131909500Y-96687870D01*
X131909501Y-96687876D01*
X131915908Y-96747483D01*
X131966202Y-96882328D01*
X131966206Y-96882335D01*
X132052452Y-96997544D01*
X132052455Y-96997547D01*
X132167664Y-97083793D01*
X132167671Y-97083797D01*
X132302517Y-97134091D01*
X132302516Y-97134091D01*
X132309444Y-97134835D01*
X132362127Y-97140500D01*
X134157872Y-97140499D01*
X134217483Y-97134091D01*
X134352331Y-97083796D01*
X134467546Y-96997546D01*
X134553796Y-96882331D01*
X134604091Y-96747483D01*
X134610500Y-96687873D01*
X134610499Y-94892128D01*
X134604091Y-94832517D01*
X134553796Y-94697669D01*
X134553795Y-94697668D01*
X134553793Y-94697664D01*
X134467547Y-94582455D01*
X134467544Y-94582452D01*
X134352335Y-94496206D01*
X134352328Y-94496202D01*
X134217482Y-94445908D01*
X134217483Y-94445908D01*
X134157883Y-94439501D01*
X134157881Y-94439500D01*
X134157873Y-94439500D01*
X134157864Y-94439500D01*
X132362129Y-94439500D01*
X132362123Y-94439501D01*
X132302516Y-94445908D01*
X132167671Y-94496202D01*
X132167664Y-94496206D01*
X132052455Y-94582452D01*
X132052452Y-94582455D01*
X131966206Y-94697664D01*
X131966202Y-94697671D01*
X131915908Y-94832517D01*
X131909501Y-94892116D01*
X131909501Y-94892123D01*
X131909500Y-94892135D01*
X130500500Y-94892135D01*
X130500500Y-87115928D01*
X155339500Y-87115928D01*
X155339500Y-111534070D01*
X155363613Y-111655287D01*
X155363614Y-111655299D01*
X155363615Y-111655299D01*
X155364498Y-111659741D01*
X155364500Y-111659747D01*
X155413533Y-111778125D01*
X155484726Y-111884673D01*
X161205324Y-117605271D01*
X161205331Y-117605277D01*
X161311871Y-117676464D01*
X161311870Y-117676464D01*
X161346544Y-117690826D01*
X161430256Y-117725501D01*
X161430260Y-117725501D01*
X161430261Y-117725502D01*
X161555928Y-117750500D01*
X161555931Y-117750500D01*
X177664071Y-117750500D01*
X177748615Y-117733682D01*
X177789744Y-117725501D01*
X177908127Y-117676465D01*
X178014669Y-117605277D01*
X180205276Y-115414670D01*
X180276465Y-115308127D01*
X180325501Y-115189744D01*
X180350500Y-115064069D01*
X180350500Y-113561196D01*
X180370185Y-113494157D01*
X180386819Y-113473515D01*
X180844871Y-113015462D01*
X180844873Y-113015460D01*
X180844882Y-113015451D01*
X180872076Y-112980444D01*
X180928748Y-112939579D01*
X180998517Y-112935840D01*
X181059233Y-112970414D01*
X181067920Y-112980439D01*
X181095121Y-113015455D01*
X181095125Y-113015459D01*
X181095126Y-113015460D01*
X181564537Y-113484871D01*
X181564556Y-113484888D01*
X181631461Y-113536863D01*
X181631462Y-113536864D01*
X181653029Y-113545797D01*
X181764430Y-113591940D01*
X181848503Y-113602500D01*
X182631493Y-113602501D01*
X182715569Y-113591940D01*
X182848536Y-113536863D01*
X182915455Y-113484879D01*
X183384882Y-113015451D01*
X183412076Y-112980444D01*
X183468748Y-112939579D01*
X183538517Y-112935840D01*
X183599233Y-112970414D01*
X183607920Y-112980439D01*
X183635121Y-113015455D01*
X183635125Y-113015459D01*
X183635126Y-113015460D01*
X184104537Y-113484871D01*
X184104556Y-113484888D01*
X184171461Y-113536863D01*
X184171462Y-113536864D01*
X184193029Y-113545797D01*
X184304430Y-113591940D01*
X184388503Y-113602500D01*
X185171493Y-113602501D01*
X185255569Y-113591940D01*
X185388536Y-113536863D01*
X185455455Y-113484879D01*
X185924882Y-113015451D01*
X185952076Y-112980444D01*
X186008748Y-112939579D01*
X186078517Y-112935840D01*
X186139233Y-112970414D01*
X186147920Y-112980439D01*
X186175121Y-113015455D01*
X186175125Y-113015459D01*
X186175126Y-113015460D01*
X186644537Y-113484871D01*
X186644556Y-113484888D01*
X186711461Y-113536863D01*
X186711462Y-113536864D01*
X186733029Y-113545797D01*
X186844430Y-113591940D01*
X186928503Y-113602500D01*
X187711493Y-113602501D01*
X187795569Y-113591940D01*
X187928536Y-113536863D01*
X187995455Y-113484879D01*
X188464882Y-113015451D01*
X188492076Y-112980444D01*
X188548748Y-112939579D01*
X188618517Y-112935840D01*
X188679233Y-112970414D01*
X188687920Y-112980439D01*
X188715121Y-113015455D01*
X188715125Y-113015459D01*
X188715126Y-113015460D01*
X189184537Y-113484871D01*
X189184556Y-113484888D01*
X189251461Y-113536863D01*
X189251462Y-113536864D01*
X189273029Y-113545797D01*
X189384430Y-113591940D01*
X189468503Y-113602500D01*
X190251493Y-113602501D01*
X190335569Y-113591940D01*
X190468536Y-113536863D01*
X190535455Y-113484879D01*
X191004882Y-113015451D01*
X191032076Y-112980444D01*
X191088748Y-112939579D01*
X191158517Y-112935840D01*
X191219233Y-112970414D01*
X191227920Y-112980439D01*
X191255121Y-113015455D01*
X191255125Y-113015459D01*
X191255126Y-113015460D01*
X191724537Y-113484871D01*
X191724556Y-113484888D01*
X191791461Y-113536863D01*
X191791462Y-113536864D01*
X191813029Y-113545797D01*
X191924430Y-113591940D01*
X192008503Y-113602500D01*
X192791493Y-113602501D01*
X192875569Y-113591940D01*
X193008536Y-113536863D01*
X193075455Y-113484879D01*
X193544882Y-113015451D01*
X193572076Y-112980444D01*
X193628748Y-112939579D01*
X193698517Y-112935840D01*
X193759233Y-112970414D01*
X193767920Y-112980439D01*
X193795121Y-113015455D01*
X193795125Y-113015459D01*
X193795126Y-113015460D01*
X194264537Y-113484871D01*
X194264556Y-113484888D01*
X194331461Y-113536863D01*
X194331462Y-113536864D01*
X194353029Y-113545797D01*
X194464430Y-113591940D01*
X194548503Y-113602500D01*
X195331493Y-113602501D01*
X195415569Y-113591940D01*
X195548536Y-113536863D01*
X195615455Y-113484879D01*
X196084882Y-113015451D01*
X196112076Y-112980444D01*
X196168748Y-112939579D01*
X196238517Y-112935840D01*
X196299233Y-112970414D01*
X196307920Y-112980439D01*
X196335121Y-113015455D01*
X196335125Y-113015459D01*
X196335126Y-113015460D01*
X196804537Y-113484871D01*
X196804556Y-113484888D01*
X196871461Y-113536863D01*
X196871462Y-113536864D01*
X196893029Y-113545797D01*
X197004430Y-113591940D01*
X197088503Y-113602500D01*
X197871493Y-113602501D01*
X197955569Y-113591940D01*
X198088536Y-113536863D01*
X198155455Y-113484879D01*
X198624882Y-113015451D01*
X198652076Y-112980444D01*
X198708748Y-112939579D01*
X198778517Y-112935840D01*
X198839233Y-112970414D01*
X198847920Y-112980439D01*
X198875121Y-113015455D01*
X198875125Y-113015459D01*
X198875126Y-113015460D01*
X199344537Y-113484871D01*
X199344556Y-113484888D01*
X199411461Y-113536863D01*
X199411462Y-113536864D01*
X199433029Y-113545797D01*
X199544430Y-113591940D01*
X199628503Y-113602500D01*
X200411493Y-113602501D01*
X200495569Y-113591940D01*
X200628536Y-113536863D01*
X200695455Y-113484879D01*
X201164882Y-113015451D01*
X201192076Y-112980444D01*
X201248748Y-112939579D01*
X201318517Y-112935840D01*
X201379233Y-112970414D01*
X201387920Y-112980439D01*
X201415121Y-113015455D01*
X201415125Y-113015459D01*
X201415126Y-113015460D01*
X201884537Y-113484871D01*
X201884556Y-113484888D01*
X201951461Y-113536863D01*
X201951462Y-113536864D01*
X201973029Y-113545797D01*
X202084430Y-113591940D01*
X202168503Y-113602500D01*
X202951493Y-113602501D01*
X203035569Y-113591940D01*
X203168536Y-113536863D01*
X203235455Y-113484879D01*
X203704882Y-113015451D01*
X203732076Y-112980444D01*
X203788748Y-112939579D01*
X203858517Y-112935840D01*
X203919233Y-112970414D01*
X203927920Y-112980439D01*
X203955121Y-113015455D01*
X203955125Y-113015459D01*
X203955126Y-113015460D01*
X204424537Y-113484871D01*
X204424556Y-113484888D01*
X204491461Y-113536863D01*
X204491462Y-113536864D01*
X204513029Y-113545797D01*
X204624430Y-113591940D01*
X204708503Y-113602500D01*
X205491493Y-113602501D01*
X205575569Y-113591940D01*
X205708536Y-113536863D01*
X205775455Y-113484879D01*
X206244882Y-113015451D01*
X206272076Y-112980444D01*
X206328748Y-112939579D01*
X206398517Y-112935840D01*
X206459233Y-112970414D01*
X206467920Y-112980439D01*
X206495121Y-113015455D01*
X206495125Y-113015459D01*
X206495126Y-113015460D01*
X206964537Y-113484871D01*
X206964556Y-113484888D01*
X207031461Y-113536863D01*
X207031462Y-113536864D01*
X207053029Y-113545797D01*
X207164430Y-113591940D01*
X207248503Y-113602500D01*
X208031493Y-113602501D01*
X208115569Y-113591940D01*
X208248536Y-113536863D01*
X208315455Y-113484879D01*
X208784882Y-113015451D01*
X208836864Y-112948537D01*
X208891940Y-112815570D01*
X208902500Y-112731497D01*
X208902501Y-111948507D01*
X208902501Y-111948506D01*
X211457499Y-111948506D01*
X211457499Y-112731494D01*
X211468059Y-112815566D01*
X211468060Y-112815570D01*
X211523136Y-112948535D01*
X211534738Y-112963470D01*
X211575121Y-113015455D01*
X211575125Y-113015459D01*
X211575126Y-113015460D01*
X212044537Y-113484871D01*
X212044556Y-113484888D01*
X212111461Y-113536863D01*
X212111462Y-113536864D01*
X212133029Y-113545797D01*
X212244430Y-113591940D01*
X212328503Y-113602500D01*
X213111493Y-113602501D01*
X213195569Y-113591940D01*
X213328536Y-113536863D01*
X213395455Y-113484879D01*
X213864882Y-113015451D01*
X213916864Y-112948537D01*
X213971940Y-112815570D01*
X213982500Y-112731497D01*
X213982501Y-111948507D01*
X213971940Y-111864431D01*
X213916863Y-111731464D01*
X213864879Y-111664545D01*
X213670850Y-111470516D01*
X213395462Y-111195128D01*
X213395443Y-111195111D01*
X213328538Y-111143136D01*
X213328537Y-111143135D01*
X213195573Y-111088061D01*
X213195571Y-111088060D01*
X213195570Y-111088060D01*
X213195569Y-111088059D01*
X213195566Y-111088059D01*
X213111500Y-111077500D01*
X213111493Y-111077499D01*
X212328505Y-111077499D01*
X212244433Y-111088059D01*
X212244429Y-111088060D01*
X212111464Y-111143136D01*
X212044545Y-111195121D01*
X212044539Y-111195126D01*
X211575128Y-111664537D01*
X211575111Y-111664556D01*
X211523136Y-111731461D01*
X211523135Y-111731462D01*
X211468061Y-111864426D01*
X211468059Y-111864433D01*
X211457500Y-111948499D01*
X211457499Y-111948506D01*
X208902501Y-111948506D01*
X208891940Y-111864431D01*
X208836863Y-111731464D01*
X208784879Y-111664545D01*
X208590850Y-111470516D01*
X208315462Y-111195128D01*
X208315443Y-111195111D01*
X208248538Y-111143136D01*
X208248537Y-111143135D01*
X208115573Y-111088061D01*
X208115571Y-111088060D01*
X208115570Y-111088060D01*
X208115569Y-111088059D01*
X208115566Y-111088059D01*
X208031500Y-111077500D01*
X208031493Y-111077499D01*
X207248505Y-111077499D01*
X207164433Y-111088059D01*
X207164429Y-111088060D01*
X207031464Y-111143136D01*
X206964545Y-111195121D01*
X206964539Y-111195126D01*
X206495128Y-111664537D01*
X206495115Y-111664551D01*
X206467921Y-111699557D01*
X206411248Y-111740421D01*
X206341478Y-111744158D01*
X206280764Y-111709582D01*
X206272074Y-111699553D01*
X206267240Y-111693331D01*
X206244879Y-111664545D01*
X206050850Y-111470516D01*
X205775462Y-111195128D01*
X205775443Y-111195111D01*
X205708538Y-111143136D01*
X205708537Y-111143135D01*
X205575573Y-111088061D01*
X205575571Y-111088060D01*
X205575570Y-111088060D01*
X205575569Y-111088059D01*
X205575566Y-111088059D01*
X205491500Y-111077500D01*
X205491493Y-111077499D01*
X204708505Y-111077499D01*
X204624433Y-111088059D01*
X204624429Y-111088060D01*
X204491464Y-111143136D01*
X204424545Y-111195121D01*
X204424539Y-111195126D01*
X203955128Y-111664537D01*
X203955115Y-111664551D01*
X203927921Y-111699557D01*
X203871248Y-111740421D01*
X203801478Y-111744158D01*
X203740764Y-111709582D01*
X203732074Y-111699553D01*
X203727240Y-111693331D01*
X203704879Y-111664545D01*
X203510850Y-111470516D01*
X203235462Y-111195128D01*
X203235443Y-111195111D01*
X203168538Y-111143136D01*
X203168537Y-111143135D01*
X203035573Y-111088061D01*
X203035571Y-111088060D01*
X203035570Y-111088060D01*
X203035569Y-111088059D01*
X203035566Y-111088059D01*
X202951500Y-111077500D01*
X202951493Y-111077499D01*
X202168505Y-111077499D01*
X202084433Y-111088059D01*
X202084429Y-111088060D01*
X201951464Y-111143136D01*
X201884545Y-111195121D01*
X201884539Y-111195126D01*
X201415128Y-111664537D01*
X201415115Y-111664551D01*
X201387921Y-111699557D01*
X201331248Y-111740421D01*
X201261478Y-111744158D01*
X201200764Y-111709582D01*
X201192074Y-111699553D01*
X201187240Y-111693331D01*
X201164879Y-111664545D01*
X200970850Y-111470516D01*
X200797820Y-111297486D01*
X200764335Y-111236163D01*
X200769319Y-111166471D01*
X200797818Y-111122127D01*
X201533127Y-110386819D01*
X201594450Y-110353334D01*
X201620808Y-110350500D01*
X216664071Y-110350500D01*
X216748615Y-110333682D01*
X216789744Y-110325501D01*
X216908127Y-110276465D01*
X216943452Y-110252862D01*
X216943453Y-110252862D01*
X216996743Y-110217254D01*
X217014669Y-110205277D01*
X221305277Y-105914669D01*
X221376465Y-105808127D01*
X221425501Y-105689744D01*
X221450500Y-105564069D01*
X221450500Y-92115513D01*
X222399500Y-92115513D01*
X222399500Y-92304486D01*
X222429059Y-92491118D01*
X222487454Y-92670836D01*
X222573240Y-92839199D01*
X222684310Y-92992073D01*
X222684312Y-92992075D01*
X222814556Y-93122319D01*
X222848041Y-93183642D01*
X222843057Y-93253334D01*
X222814556Y-93297681D01*
X222684312Y-93427924D01*
X222684312Y-93427925D01*
X222684310Y-93427927D01*
X222636610Y-93493579D01*
X222573240Y-93580800D01*
X222487454Y-93749163D01*
X222429059Y-93928881D01*
X222399500Y-94115513D01*
X222399500Y-94304486D01*
X222429059Y-94491118D01*
X222487454Y-94670836D01*
X222569835Y-94832516D01*
X222573240Y-94839199D01*
X222684310Y-94992073D01*
X222817927Y-95125690D01*
X222970801Y-95236760D01*
X223050347Y-95277290D01*
X223139163Y-95322545D01*
X223139165Y-95322545D01*
X223139168Y-95322547D01*
X223235497Y-95353846D01*
X223318881Y-95380940D01*
X223505514Y-95410500D01*
X223505519Y-95410500D01*
X223694486Y-95410500D01*
X223881118Y-95380940D01*
X224060832Y-95322547D01*
X224229199Y-95236760D01*
X224382073Y-95125690D01*
X224515690Y-94992073D01*
X224626760Y-94839199D01*
X224712547Y-94670832D01*
X224770940Y-94491118D01*
X224778100Y-94445909D01*
X224800500Y-94304486D01*
X224800500Y-94115513D01*
X224770940Y-93928881D01*
X224743846Y-93845497D01*
X224712547Y-93749168D01*
X224712545Y-93749165D01*
X224712545Y-93749163D01*
X224626759Y-93580800D01*
X224515690Y-93427927D01*
X224385444Y-93297681D01*
X224351959Y-93236358D01*
X224356943Y-93166666D01*
X224385444Y-93122319D01*
X224515690Y-92992073D01*
X224626760Y-92839199D01*
X224712547Y-92670832D01*
X224770940Y-92491118D01*
X224800500Y-92304486D01*
X224800500Y-92115513D01*
X224770940Y-91928881D01*
X224712545Y-91749163D01*
X224626759Y-91580800D01*
X224515690Y-91427927D01*
X224382073Y-91294310D01*
X224229199Y-91183240D01*
X224060836Y-91097454D01*
X223881118Y-91039059D01*
X223694486Y-91009500D01*
X223694481Y-91009500D01*
X223505519Y-91009500D01*
X223505514Y-91009500D01*
X223318881Y-91039059D01*
X223139163Y-91097454D01*
X222970800Y-91183240D01*
X222883579Y-91246610D01*
X222817927Y-91294310D01*
X222817925Y-91294312D01*
X222817924Y-91294312D01*
X222684312Y-91427924D01*
X222684312Y-91427925D01*
X222684310Y-91427927D01*
X222636610Y-91493579D01*
X222573240Y-91580800D01*
X222487454Y-91749163D01*
X222429059Y-91928881D01*
X222399500Y-92115513D01*
X221450500Y-92115513D01*
X221450500Y-85269983D01*
X222824500Y-85269983D01*
X222824500Y-86070001D01*
X222824501Y-86070019D01*
X222835000Y-86172796D01*
X222835001Y-86172799D01*
X222867297Y-86270261D01*
X222890186Y-86339334D01*
X222982288Y-86488656D01*
X223106344Y-86612712D01*
X223255666Y-86704814D01*
X223422203Y-86759999D01*
X223524991Y-86770500D01*
X224875008Y-86770499D01*
X224977797Y-86759999D01*
X225144334Y-86704814D01*
X225293656Y-86612712D01*
X225417712Y-86488656D01*
X225509814Y-86339334D01*
X225564999Y-86172797D01*
X225575500Y-86070009D01*
X225575499Y-85269992D01*
X225564999Y-85167203D01*
X225509814Y-85000666D01*
X225417712Y-84851344D01*
X225293656Y-84727288D01*
X225144334Y-84635186D01*
X224977797Y-84580001D01*
X224977795Y-84580000D01*
X224875010Y-84569500D01*
X223524998Y-84569500D01*
X223524981Y-84569501D01*
X223422203Y-84580000D01*
X223422200Y-84580001D01*
X223255668Y-84635185D01*
X223255663Y-84635187D01*
X223106342Y-84727289D01*
X222982289Y-84851342D01*
X222890187Y-85000663D01*
X222890186Y-85000666D01*
X222835001Y-85167203D01*
X222835001Y-85167204D01*
X222835000Y-85167204D01*
X222824500Y-85269983D01*
X221450500Y-85269983D01*
X221450500Y-83570808D01*
X221470185Y-83503769D01*
X221486819Y-83483127D01*
X222613127Y-82356819D01*
X222674450Y-82323334D01*
X222700808Y-82320500D01*
X222974142Y-82320500D01*
X223041181Y-82340185D01*
X223074459Y-82371613D01*
X223083153Y-82383580D01*
X223085586Y-82386928D01*
X223208072Y-82509414D01*
X223348212Y-82611232D01*
X223502555Y-82689873D01*
X223667299Y-82743402D01*
X223838389Y-82770500D01*
X223838390Y-82770500D01*
X224561610Y-82770500D01*
X224561611Y-82770500D01*
X224732701Y-82743402D01*
X224897445Y-82689873D01*
X225051788Y-82611232D01*
X225191928Y-82509414D01*
X225314414Y-82386928D01*
X225416232Y-82246788D01*
X225494873Y-82092445D01*
X225548402Y-81927701D01*
X225575500Y-81756611D01*
X225575500Y-81583389D01*
X225548402Y-81412299D01*
X225494873Y-81247555D01*
X225416232Y-81093212D01*
X225314414Y-80953072D01*
X225191928Y-80830586D01*
X225108975Y-80770317D01*
X225066311Y-80714988D01*
X225060332Y-80645374D01*
X225092938Y-80583579D01*
X225108976Y-80569682D01*
X225191928Y-80509414D01*
X225314414Y-80386928D01*
X225416232Y-80246788D01*
X225494873Y-80092445D01*
X225548402Y-79927701D01*
X225575500Y-79756611D01*
X225575500Y-79583389D01*
X225548402Y-79412299D01*
X225494873Y-79247555D01*
X225416232Y-79093212D01*
X225314414Y-78953072D01*
X225191928Y-78830586D01*
X225108975Y-78770317D01*
X225066311Y-78714988D01*
X225060332Y-78645374D01*
X225092938Y-78583579D01*
X225108976Y-78569682D01*
X225191928Y-78509414D01*
X225314414Y-78386928D01*
X225416232Y-78246788D01*
X225494873Y-78092445D01*
X225548402Y-77927701D01*
X225575500Y-77756611D01*
X225575500Y-77583389D01*
X225548402Y-77412299D01*
X225494873Y-77247555D01*
X225416232Y-77093212D01*
X225314414Y-76953072D01*
X225191928Y-76830586D01*
X225108975Y-76770317D01*
X225066311Y-76714988D01*
X225060332Y-76645374D01*
X225092938Y-76583579D01*
X225108976Y-76569682D01*
X225191928Y-76509414D01*
X225314414Y-76386928D01*
X225416232Y-76246788D01*
X225494873Y-76092445D01*
X225548402Y-75927701D01*
X225575500Y-75756611D01*
X225575500Y-75583389D01*
X225548402Y-75412299D01*
X225494873Y-75247555D01*
X225416232Y-75093212D01*
X225314414Y-74953072D01*
X225191928Y-74830586D01*
X225051788Y-74728768D01*
X224897445Y-74650127D01*
X224732701Y-74596598D01*
X224732699Y-74596597D01*
X224732698Y-74596597D01*
X224601271Y-74575781D01*
X224561611Y-74569500D01*
X223838389Y-74569500D01*
X223798728Y-74575781D01*
X223667302Y-74596597D01*
X223502552Y-74650128D01*
X223348211Y-74728768D01*
X223268256Y-74786859D01*
X223208072Y-74830586D01*
X223208070Y-74830588D01*
X223208069Y-74830588D01*
X223085588Y-74953069D01*
X223085588Y-74953070D01*
X223085586Y-74953072D01*
X223041859Y-75013256D01*
X222983768Y-75093211D01*
X222905128Y-75247552D01*
X222851597Y-75412302D01*
X222824500Y-75583389D01*
X222824500Y-75756611D01*
X222851598Y-75927701D01*
X222905127Y-76092445D01*
X222983768Y-76246788D01*
X223085586Y-76386928D01*
X223208072Y-76509414D01*
X223208078Y-76509418D01*
X223291023Y-76569683D01*
X223333689Y-76625013D01*
X223339667Y-76694626D01*
X223307061Y-76756421D01*
X223291023Y-76770317D01*
X223208078Y-76830581D01*
X223208069Y-76830588D01*
X223085588Y-76953069D01*
X223085588Y-76953070D01*
X223085586Y-76953072D01*
X223041859Y-77013256D01*
X222983768Y-77093211D01*
X222905128Y-77247552D01*
X222851597Y-77412302D01*
X222824500Y-77583389D01*
X222824500Y-77756611D01*
X222851598Y-77927701D01*
X222905127Y-78092445D01*
X222983768Y-78246788D01*
X223085586Y-78386928D01*
X223208072Y-78509414D01*
X223208078Y-78509418D01*
X223291023Y-78569683D01*
X223333689Y-78625013D01*
X223339667Y-78694626D01*
X223307061Y-78756421D01*
X223291023Y-78770317D01*
X223208078Y-78830581D01*
X223208069Y-78830588D01*
X223085585Y-78953072D01*
X223074459Y-78968387D01*
X223019128Y-79011052D01*
X222974142Y-79019500D01*
X221785929Y-79019500D01*
X221660261Y-79044497D01*
X221660255Y-79044499D01*
X221541874Y-79093534D01*
X221435326Y-79164726D01*
X221435325Y-79164727D01*
X218394722Y-82205331D01*
X218394717Y-82205337D01*
X218367241Y-82246462D01*
X218367239Y-82246465D01*
X218349733Y-82272664D01*
X218323534Y-82311873D01*
X218274499Y-82430255D01*
X218274497Y-82430261D01*
X218249500Y-82555928D01*
X218249500Y-100029192D01*
X218229815Y-100096231D01*
X218213181Y-100116873D01*
X212666873Y-105663181D01*
X212605550Y-105696666D01*
X212579192Y-105699500D01*
X200785929Y-105699500D01*
X200660261Y-105724497D01*
X200660255Y-105724499D01*
X200541874Y-105773534D01*
X200435326Y-105844726D01*
X196974726Y-109305326D01*
X196974723Y-109305331D01*
X196931653Y-109369792D01*
X196916899Y-109391873D01*
X196903533Y-109411876D01*
X196854499Y-109530255D01*
X196854497Y-109530261D01*
X196829500Y-109655928D01*
X196829500Y-111118803D01*
X196809815Y-111185842D01*
X196793181Y-111206484D01*
X196335128Y-111664537D01*
X196335115Y-111664551D01*
X196307921Y-111699557D01*
X196251248Y-111740421D01*
X196181478Y-111744158D01*
X196120764Y-111709582D01*
X196112074Y-111699553D01*
X196107240Y-111693331D01*
X196084879Y-111664545D01*
X195890850Y-111470516D01*
X195615462Y-111195128D01*
X195615443Y-111195111D01*
X195548538Y-111143136D01*
X195548537Y-111143135D01*
X195415573Y-111088061D01*
X195415571Y-111088060D01*
X195415570Y-111088060D01*
X195415569Y-111088059D01*
X195415566Y-111088059D01*
X195331500Y-111077500D01*
X195331493Y-111077499D01*
X194548505Y-111077499D01*
X194464433Y-111088059D01*
X194464429Y-111088060D01*
X194331464Y-111143136D01*
X194264545Y-111195121D01*
X194264539Y-111195126D01*
X193795128Y-111664537D01*
X193795115Y-111664551D01*
X193767921Y-111699557D01*
X193711248Y-111740421D01*
X193641478Y-111744158D01*
X193580764Y-111709582D01*
X193572074Y-111699553D01*
X193567240Y-111693331D01*
X193544879Y-111664545D01*
X193350850Y-111470516D01*
X193075462Y-111195128D01*
X193075443Y-111195111D01*
X193008538Y-111143136D01*
X193008537Y-111143135D01*
X192875573Y-111088061D01*
X192875571Y-111088060D01*
X192875570Y-111088060D01*
X192875569Y-111088059D01*
X192875566Y-111088059D01*
X192791500Y-111077500D01*
X192791493Y-111077499D01*
X192008505Y-111077499D01*
X191924433Y-111088059D01*
X191924429Y-111088060D01*
X191791464Y-111143136D01*
X191724545Y-111195121D01*
X191724539Y-111195126D01*
X191255128Y-111664537D01*
X191255115Y-111664551D01*
X191227921Y-111699557D01*
X191171248Y-111740421D01*
X191101478Y-111744158D01*
X191040764Y-111709582D01*
X191032074Y-111699553D01*
X191027240Y-111693331D01*
X191004879Y-111664545D01*
X190810850Y-111470516D01*
X190535462Y-111195128D01*
X190535443Y-111195111D01*
X190468538Y-111143136D01*
X190468537Y-111143135D01*
X190335573Y-111088061D01*
X190335571Y-111088060D01*
X190335570Y-111088060D01*
X190335569Y-111088059D01*
X190335566Y-111088059D01*
X190251500Y-111077500D01*
X190251493Y-111077499D01*
X189468505Y-111077499D01*
X189384433Y-111088059D01*
X189384429Y-111088060D01*
X189251464Y-111143136D01*
X189184545Y-111195121D01*
X189184539Y-111195126D01*
X188715128Y-111664537D01*
X188715115Y-111664551D01*
X188687921Y-111699557D01*
X188631248Y-111740421D01*
X188561478Y-111744158D01*
X188500764Y-111709582D01*
X188492074Y-111699553D01*
X188487240Y-111693331D01*
X188464879Y-111664545D01*
X188270850Y-111470516D01*
X187995462Y-111195128D01*
X187995443Y-111195111D01*
X187928538Y-111143136D01*
X187928537Y-111143135D01*
X187795573Y-111088061D01*
X187795571Y-111088060D01*
X187795570Y-111088060D01*
X187795569Y-111088059D01*
X187795566Y-111088059D01*
X187711500Y-111077500D01*
X187711493Y-111077499D01*
X186928505Y-111077499D01*
X186844433Y-111088059D01*
X186844429Y-111088060D01*
X186711464Y-111143136D01*
X186644545Y-111195121D01*
X186644539Y-111195126D01*
X186175128Y-111664537D01*
X186175115Y-111664551D01*
X186147921Y-111699557D01*
X186091248Y-111740421D01*
X186021478Y-111744158D01*
X185960764Y-111709582D01*
X185952074Y-111699553D01*
X185947240Y-111693331D01*
X185924879Y-111664545D01*
X185730850Y-111470516D01*
X185455462Y-111195128D01*
X185455443Y-111195111D01*
X185388538Y-111143136D01*
X185388537Y-111143135D01*
X185255573Y-111088061D01*
X185255571Y-111088060D01*
X185255570Y-111088060D01*
X185255569Y-111088059D01*
X185255566Y-111088059D01*
X185171500Y-111077500D01*
X185171493Y-111077499D01*
X184388505Y-111077499D01*
X184304433Y-111088059D01*
X184304429Y-111088060D01*
X184171464Y-111143136D01*
X184104545Y-111195121D01*
X184104539Y-111195126D01*
X183635128Y-111664537D01*
X183635115Y-111664551D01*
X183607921Y-111699557D01*
X183551248Y-111740421D01*
X183481478Y-111744158D01*
X183420764Y-111709582D01*
X183412074Y-111699553D01*
X183407240Y-111693331D01*
X183384879Y-111664545D01*
X183190850Y-111470516D01*
X182915462Y-111195128D01*
X182915443Y-111195111D01*
X182848538Y-111143136D01*
X182848537Y-111143135D01*
X182715573Y-111088061D01*
X182715571Y-111088060D01*
X182715570Y-111088060D01*
X182715569Y-111088059D01*
X182715566Y-111088059D01*
X182631500Y-111077500D01*
X182631493Y-111077499D01*
X181848505Y-111077499D01*
X181764433Y-111088059D01*
X181764429Y-111088060D01*
X181631464Y-111143136D01*
X181564545Y-111195121D01*
X181564539Y-111195126D01*
X181095128Y-111664537D01*
X181095115Y-111664551D01*
X181067921Y-111699557D01*
X181011248Y-111740421D01*
X180941478Y-111744158D01*
X180880764Y-111709582D01*
X180872074Y-111699553D01*
X180867240Y-111693331D01*
X180844879Y-111664545D01*
X180650850Y-111470516D01*
X180375462Y-111195128D01*
X180375443Y-111195111D01*
X180308538Y-111143136D01*
X180308537Y-111143135D01*
X180175573Y-111088061D01*
X180175571Y-111088060D01*
X180175570Y-111088060D01*
X180175569Y-111088059D01*
X180175566Y-111088059D01*
X180091500Y-111077500D01*
X180091493Y-111077499D01*
X179308505Y-111077499D01*
X179224433Y-111088059D01*
X179224429Y-111088060D01*
X179091464Y-111143136D01*
X179024545Y-111195121D01*
X179024539Y-111195126D01*
X178555128Y-111664537D01*
X178555115Y-111664551D01*
X178527921Y-111699557D01*
X178471248Y-111740421D01*
X178401478Y-111744158D01*
X178340764Y-111709582D01*
X178332074Y-111699553D01*
X178327240Y-111693331D01*
X178304879Y-111664545D01*
X178110850Y-111470516D01*
X177846819Y-111206485D01*
X177813334Y-111145162D01*
X177810500Y-111118804D01*
X177810500Y-110995928D01*
X177785502Y-110870261D01*
X177785501Y-110870260D01*
X177785501Y-110870256D01*
X177736465Y-110751873D01*
X177710997Y-110713757D01*
X177710997Y-110713756D01*
X177665275Y-110645328D01*
X176114673Y-109094726D01*
X176084398Y-109074497D01*
X176008127Y-109023535D01*
X175983130Y-109013181D01*
X175889744Y-108974499D01*
X175889738Y-108974497D01*
X175764071Y-108949500D01*
X175764069Y-108949500D01*
X167420808Y-108949500D01*
X167353769Y-108929815D01*
X167333127Y-108913181D01*
X160186819Y-101766873D01*
X160153334Y-101705550D01*
X160150500Y-101679192D01*
X160150500Y-96708506D01*
X163197499Y-96708506D01*
X163197499Y-97491494D01*
X163208059Y-97575566D01*
X163208060Y-97575570D01*
X163263136Y-97708535D01*
X163274738Y-97723470D01*
X163315121Y-97775455D01*
X163315125Y-97775459D01*
X163315126Y-97775460D01*
X163784537Y-98244871D01*
X163784556Y-98244888D01*
X163851461Y-98296863D01*
X163851462Y-98296864D01*
X163910206Y-98321196D01*
X163984430Y-98351940D01*
X164068503Y-98362500D01*
X164851493Y-98362501D01*
X164935569Y-98351940D01*
X165068536Y-98296863D01*
X165135455Y-98244879D01*
X165604882Y-97775451D01*
X165656864Y-97708537D01*
X165711940Y-97575570D01*
X165722500Y-97491497D01*
X165722501Y-96708507D01*
X165711940Y-96624431D01*
X165656863Y-96491464D01*
X165604879Y-96424545D01*
X165604871Y-96424537D01*
X165135462Y-95955128D01*
X165135443Y-95955111D01*
X165068538Y-95903136D01*
X165068537Y-95903135D01*
X164935573Y-95848061D01*
X164935571Y-95848060D01*
X164935570Y-95848060D01*
X164935569Y-95848059D01*
X164935566Y-95848059D01*
X164851500Y-95837500D01*
X164851493Y-95837499D01*
X164068505Y-95837499D01*
X163984433Y-95848059D01*
X163984429Y-95848060D01*
X163851464Y-95903136D01*
X163784545Y-95955121D01*
X163784539Y-95955126D01*
X163315128Y-96424537D01*
X163315111Y-96424556D01*
X163263136Y-96491461D01*
X163263135Y-96491462D01*
X163208061Y-96624426D01*
X163208059Y-96624433D01*
X163197500Y-96708499D01*
X163197499Y-96708506D01*
X160150500Y-96708506D01*
X160150500Y-87390807D01*
X160159144Y-87361366D01*
X160165668Y-87331380D01*
X160169422Y-87326364D01*
X160170185Y-87323768D01*
X160186815Y-87303130D01*
X160302059Y-87187885D01*
X160363382Y-87154401D01*
X160433074Y-87159385D01*
X160489007Y-87201257D01*
X160490059Y-87202683D01*
X160501399Y-87218291D01*
X160501401Y-87218294D01*
X160661708Y-87378601D01*
X160661713Y-87378605D01*
X160808608Y-87485329D01*
X160845118Y-87511855D01*
X160977166Y-87579137D01*
X161047116Y-87614779D01*
X161047119Y-87614780D01*
X161154923Y-87649807D01*
X161262729Y-87684835D01*
X161486646Y-87720300D01*
X161486647Y-87720300D01*
X161713353Y-87720300D01*
X161713354Y-87720300D01*
X161937271Y-87684835D01*
X162152883Y-87614779D01*
X162354882Y-87511855D01*
X162538293Y-87378600D01*
X162698600Y-87218293D01*
X162831855Y-87034882D01*
X162934779Y-86832883D01*
X163004835Y-86617271D01*
X163040300Y-86393354D01*
X163040300Y-86166646D01*
X163004835Y-85942729D01*
X162934779Y-85727117D01*
X162934779Y-85727116D01*
X162876425Y-85612591D01*
X162831855Y-85525118D01*
X162814829Y-85501684D01*
X162698605Y-85341713D01*
X162698601Y-85341708D01*
X162538293Y-85181400D01*
X162518748Y-85167200D01*
X162440456Y-85110317D01*
X162397791Y-85054989D01*
X162391812Y-84985376D01*
X162424417Y-84923580D01*
X162440456Y-84909682D01*
X162538293Y-84838600D01*
X162698600Y-84678293D01*
X162831855Y-84494882D01*
X162934779Y-84292883D01*
X163004835Y-84077271D01*
X163040300Y-83853354D01*
X163040300Y-83626646D01*
X163004835Y-83402729D01*
X162950247Y-83234723D01*
X162934780Y-83187119D01*
X162934779Y-83187116D01*
X162870142Y-83060261D01*
X162831855Y-82985118D01*
X162735126Y-82851981D01*
X162698605Y-82801713D01*
X162698601Y-82801708D01*
X162538293Y-82641400D01*
X162496770Y-82611232D01*
X162440456Y-82570317D01*
X162397791Y-82514989D01*
X162391812Y-82445376D01*
X162424417Y-82383580D01*
X162440456Y-82369682D01*
X162538293Y-82298600D01*
X162698600Y-82138293D01*
X162831855Y-81954882D01*
X162934779Y-81752883D01*
X163004835Y-81537271D01*
X163040300Y-81313354D01*
X163040300Y-81086646D01*
X166419700Y-81086646D01*
X166419700Y-81313353D01*
X166455165Y-81537272D01*
X166525219Y-81752880D01*
X166525220Y-81752883D01*
X166628147Y-81954885D01*
X166761394Y-82138286D01*
X166761398Y-82138291D01*
X166921708Y-82298601D01*
X166921713Y-82298605D01*
X167081684Y-82414829D01*
X167105118Y-82431855D01*
X167179982Y-82470000D01*
X167307116Y-82534779D01*
X167307119Y-82534780D01*
X167414923Y-82569807D01*
X167522729Y-82604835D01*
X167746646Y-82640300D01*
X167746647Y-82640300D01*
X167973353Y-82640300D01*
X167973354Y-82640300D01*
X168197271Y-82604835D01*
X168412883Y-82534779D01*
X168614882Y-82431855D01*
X168798293Y-82298600D01*
X168958600Y-82138293D01*
X169029682Y-82040456D01*
X169085011Y-81997791D01*
X169154624Y-81991812D01*
X169216420Y-82024417D01*
X169230315Y-82040453D01*
X169243770Y-82058971D01*
X169301400Y-82138293D01*
X169461708Y-82298601D01*
X169461713Y-82298605D01*
X169621684Y-82414829D01*
X169645118Y-82431855D01*
X169719982Y-82470000D01*
X169847116Y-82534779D01*
X169847119Y-82534780D01*
X169954923Y-82569807D01*
X170062729Y-82604835D01*
X170286646Y-82640300D01*
X170286647Y-82640300D01*
X170513353Y-82640300D01*
X170513354Y-82640300D01*
X170737271Y-82604835D01*
X170952883Y-82534779D01*
X171154882Y-82431855D01*
X171338293Y-82298600D01*
X171498600Y-82138293D01*
X171589895Y-82012635D01*
X171645224Y-81969970D01*
X171714837Y-81963991D01*
X171776633Y-81996596D01*
X171777894Y-81997840D01*
X176473181Y-86693127D01*
X176506666Y-86754450D01*
X176509500Y-86780808D01*
X176509500Y-95878803D01*
X176489815Y-95945842D01*
X176473181Y-95966484D01*
X176015128Y-96424537D01*
X176015115Y-96424551D01*
X175987921Y-96459557D01*
X175931248Y-96500421D01*
X175861478Y-96504158D01*
X175800764Y-96469582D01*
X175792074Y-96459553D01*
X175787240Y-96453331D01*
X175764879Y-96424545D01*
X175764871Y-96424537D01*
X175295462Y-95955128D01*
X175295443Y-95955111D01*
X175228538Y-95903136D01*
X175228537Y-95903135D01*
X175095573Y-95848061D01*
X175095571Y-95848060D01*
X175095570Y-95848060D01*
X175095569Y-95848059D01*
X175095566Y-95848059D01*
X175011500Y-95837500D01*
X175011493Y-95837499D01*
X174228505Y-95837499D01*
X174144433Y-95848059D01*
X174144429Y-95848060D01*
X174011464Y-95903136D01*
X173944545Y-95955121D01*
X173944539Y-95955126D01*
X173475128Y-96424537D01*
X173475115Y-96424551D01*
X173447921Y-96459557D01*
X173391248Y-96500421D01*
X173321478Y-96504158D01*
X173260764Y-96469582D01*
X173252074Y-96459553D01*
X173247240Y-96453331D01*
X173224879Y-96424545D01*
X173224871Y-96424537D01*
X172755462Y-95955128D01*
X172755443Y-95955111D01*
X172688538Y-95903136D01*
X172688537Y-95903135D01*
X172555573Y-95848061D01*
X172555571Y-95848060D01*
X172555570Y-95848060D01*
X172555569Y-95848059D01*
X172555566Y-95848059D01*
X172471500Y-95837500D01*
X172471493Y-95837499D01*
X171688505Y-95837499D01*
X171604433Y-95848059D01*
X171604429Y-95848060D01*
X171471464Y-95903136D01*
X171404545Y-95955121D01*
X171404539Y-95955126D01*
X170935128Y-96424537D01*
X170935115Y-96424551D01*
X170907921Y-96459557D01*
X170851248Y-96500421D01*
X170781478Y-96504158D01*
X170720764Y-96469582D01*
X170712074Y-96459553D01*
X170707240Y-96453331D01*
X170684879Y-96424545D01*
X170684871Y-96424537D01*
X170215462Y-95955128D01*
X170215443Y-95955111D01*
X170148538Y-95903136D01*
X170148537Y-95903135D01*
X170015573Y-95848061D01*
X170015571Y-95848060D01*
X170015570Y-95848060D01*
X170015569Y-95848059D01*
X170015566Y-95848059D01*
X169931500Y-95837500D01*
X169931493Y-95837499D01*
X169148505Y-95837499D01*
X169064433Y-95848059D01*
X169064429Y-95848060D01*
X168931464Y-95903136D01*
X168864545Y-95955121D01*
X168864539Y-95955126D01*
X168395128Y-96424537D01*
X168395111Y-96424556D01*
X168343136Y-96491461D01*
X168343135Y-96491462D01*
X168288061Y-96624426D01*
X168288059Y-96624433D01*
X168277500Y-96708499D01*
X168277499Y-96708506D01*
X168277499Y-97491494D01*
X168288059Y-97575566D01*
X168288060Y-97575570D01*
X168343136Y-97708535D01*
X168354738Y-97723470D01*
X168395121Y-97775455D01*
X168395125Y-97775459D01*
X168395126Y-97775460D01*
X168864537Y-98244871D01*
X168864556Y-98244888D01*
X168931461Y-98296863D01*
X168931462Y-98296864D01*
X168990206Y-98321196D01*
X169064430Y-98351940D01*
X169148503Y-98362500D01*
X169931493Y-98362501D01*
X170015569Y-98351940D01*
X170148536Y-98296863D01*
X170215455Y-98244879D01*
X170684882Y-97775451D01*
X170712076Y-97740444D01*
X170768748Y-97699579D01*
X170838517Y-97695840D01*
X170899233Y-97730414D01*
X170907920Y-97740439D01*
X170935121Y-97775455D01*
X170935125Y-97775459D01*
X170935126Y-97775460D01*
X171404537Y-98244871D01*
X171404556Y-98244888D01*
X171471461Y-98296863D01*
X171471462Y-98296864D01*
X171530206Y-98321196D01*
X171604430Y-98351940D01*
X171688503Y-98362500D01*
X172471493Y-98362501D01*
X172555569Y-98351940D01*
X172688536Y-98296863D01*
X172755455Y-98244879D01*
X173224882Y-97775451D01*
X173252076Y-97740444D01*
X173308748Y-97699579D01*
X173378517Y-97695840D01*
X173439233Y-97730414D01*
X173447920Y-97740439D01*
X173475121Y-97775455D01*
X173475125Y-97775459D01*
X173475126Y-97775460D01*
X173944537Y-98244871D01*
X173944556Y-98244888D01*
X174011461Y-98296863D01*
X174011462Y-98296864D01*
X174070206Y-98321196D01*
X174144430Y-98351940D01*
X174228503Y-98362500D01*
X175011493Y-98362501D01*
X175095569Y-98351940D01*
X175228536Y-98296863D01*
X175295455Y-98244879D01*
X175764882Y-97775451D01*
X175792076Y-97740444D01*
X175848748Y-97699579D01*
X175918517Y-97695840D01*
X175979233Y-97730414D01*
X175987920Y-97740439D01*
X176015121Y-97775455D01*
X176015125Y-97775459D01*
X176015126Y-97775460D01*
X176484537Y-98244871D01*
X176484556Y-98244888D01*
X176551461Y-98296863D01*
X176551462Y-98296864D01*
X176610206Y-98321196D01*
X176684430Y-98351940D01*
X176768503Y-98362500D01*
X177551493Y-98362501D01*
X177635569Y-98351940D01*
X177768536Y-98296863D01*
X177835455Y-98244879D01*
X178304882Y-97775451D01*
X178332076Y-97740444D01*
X178388748Y-97699579D01*
X178458517Y-97695840D01*
X178519233Y-97730414D01*
X178527920Y-97740439D01*
X178555121Y-97775455D01*
X178555125Y-97775459D01*
X178555126Y-97775460D01*
X179024537Y-98244871D01*
X179024556Y-98244888D01*
X179091461Y-98296863D01*
X179091462Y-98296864D01*
X179150206Y-98321196D01*
X179224430Y-98351940D01*
X179308503Y-98362500D01*
X180091493Y-98362501D01*
X180175569Y-98351940D01*
X180308536Y-98296863D01*
X180375455Y-98244879D01*
X180844882Y-97775451D01*
X180872076Y-97740444D01*
X180928748Y-97699579D01*
X180998517Y-97695840D01*
X181059233Y-97730414D01*
X181067920Y-97740439D01*
X181095121Y-97775455D01*
X181095125Y-97775459D01*
X181095126Y-97775460D01*
X181564537Y-98244871D01*
X181564556Y-98244888D01*
X181631461Y-98296863D01*
X181631462Y-98296864D01*
X181690206Y-98321196D01*
X181764430Y-98351940D01*
X181848503Y-98362500D01*
X182631493Y-98362501D01*
X182715569Y-98351940D01*
X182848536Y-98296863D01*
X182915455Y-98244879D01*
X183384882Y-97775451D01*
X183412076Y-97740444D01*
X183468748Y-97699579D01*
X183538517Y-97695840D01*
X183599233Y-97730414D01*
X183607920Y-97740439D01*
X183635121Y-97775455D01*
X183635125Y-97775459D01*
X183635126Y-97775460D01*
X184104537Y-98244871D01*
X184104556Y-98244888D01*
X184171461Y-98296863D01*
X184171462Y-98296864D01*
X184230206Y-98321196D01*
X184304430Y-98351940D01*
X184388503Y-98362500D01*
X185171493Y-98362501D01*
X185255569Y-98351940D01*
X185388536Y-98296863D01*
X185455455Y-98244879D01*
X185924882Y-97775451D01*
X185952076Y-97740444D01*
X186008748Y-97699579D01*
X186078517Y-97695840D01*
X186139233Y-97730414D01*
X186147920Y-97740439D01*
X186175121Y-97775455D01*
X186175125Y-97775459D01*
X186175126Y-97775460D01*
X186644537Y-98244871D01*
X186644556Y-98244888D01*
X186711461Y-98296863D01*
X186711462Y-98296864D01*
X186770206Y-98321196D01*
X186844430Y-98351940D01*
X186928503Y-98362500D01*
X187711493Y-98362501D01*
X187795569Y-98351940D01*
X187928536Y-98296863D01*
X187995455Y-98244879D01*
X188464882Y-97775451D01*
X188492076Y-97740444D01*
X188548748Y-97699579D01*
X188618517Y-97695840D01*
X188679233Y-97730414D01*
X188687920Y-97740439D01*
X188715121Y-97775455D01*
X188715125Y-97775459D01*
X188715126Y-97775460D01*
X189184537Y-98244871D01*
X189184556Y-98244888D01*
X189251461Y-98296863D01*
X189251462Y-98296864D01*
X189310206Y-98321196D01*
X189384430Y-98351940D01*
X189468503Y-98362500D01*
X190251493Y-98362501D01*
X190335569Y-98351940D01*
X190468536Y-98296863D01*
X190535455Y-98244879D01*
X191004882Y-97775451D01*
X191032076Y-97740444D01*
X191088748Y-97699579D01*
X191158517Y-97695840D01*
X191219233Y-97730414D01*
X191227920Y-97740439D01*
X191255121Y-97775455D01*
X191255125Y-97775459D01*
X191255126Y-97775460D01*
X191724537Y-98244871D01*
X191724556Y-98244888D01*
X191791461Y-98296863D01*
X191791462Y-98296864D01*
X191850206Y-98321196D01*
X191924430Y-98351940D01*
X192008503Y-98362500D01*
X192791493Y-98362501D01*
X192875569Y-98351940D01*
X193008536Y-98296863D01*
X193075455Y-98244879D01*
X193544882Y-97775451D01*
X193572076Y-97740444D01*
X193628748Y-97699579D01*
X193698517Y-97695840D01*
X193759233Y-97730414D01*
X193767920Y-97740439D01*
X193795121Y-97775455D01*
X193795125Y-97775459D01*
X193795126Y-97775460D01*
X194264537Y-98244871D01*
X194264556Y-98244888D01*
X194331461Y-98296863D01*
X194331462Y-98296864D01*
X194390206Y-98321196D01*
X194464430Y-98351940D01*
X194548503Y-98362500D01*
X195331493Y-98362501D01*
X195415569Y-98351940D01*
X195548536Y-98296863D01*
X195615455Y-98244879D01*
X196084882Y-97775451D01*
X196112076Y-97740444D01*
X196168748Y-97699579D01*
X196238517Y-97695840D01*
X196299233Y-97730414D01*
X196307920Y-97740439D01*
X196335121Y-97775455D01*
X196335125Y-97775459D01*
X196335126Y-97775460D01*
X196793181Y-98233515D01*
X196826666Y-98294838D01*
X196829500Y-98321196D01*
X196829500Y-99844069D01*
X196834559Y-99869500D01*
X196854499Y-99969744D01*
X196903535Y-100088127D01*
X196953018Y-100162184D01*
X196974726Y-100194673D01*
X198885325Y-102105272D01*
X198885332Y-102105278D01*
X198964898Y-102158442D01*
X198964901Y-102158443D01*
X198964904Y-102158445D01*
X198991872Y-102176465D01*
X199023931Y-102189744D01*
X199110256Y-102225501D01*
X199110260Y-102225501D01*
X199110261Y-102225502D01*
X199235928Y-102250500D01*
X199235931Y-102250500D01*
X214164071Y-102250500D01*
X214248615Y-102233682D01*
X214289744Y-102225501D01*
X214408127Y-102176465D01*
X214435099Y-102158443D01*
X214514669Y-102105277D01*
X217505276Y-99114670D01*
X217576465Y-99008127D01*
X217625501Y-98889744D01*
X217650500Y-98764069D01*
X217650500Y-69520807D01*
X217670185Y-69453768D01*
X217686819Y-69433126D01*
X219419962Y-67699983D01*
X222824500Y-67699983D01*
X222824500Y-68500001D01*
X222824501Y-68500019D01*
X222835000Y-68602796D01*
X222835001Y-68602799D01*
X222870609Y-68710255D01*
X222890186Y-68769334D01*
X222982288Y-68918656D01*
X223106344Y-69042712D01*
X223255666Y-69134814D01*
X223422203Y-69189999D01*
X223524991Y-69200500D01*
X224875008Y-69200499D01*
X224977797Y-69189999D01*
X225144334Y-69134814D01*
X225293656Y-69042712D01*
X225417712Y-68918656D01*
X225509814Y-68769334D01*
X225564999Y-68602797D01*
X225575500Y-68500009D01*
X225575499Y-67699992D01*
X225564999Y-67597203D01*
X225509814Y-67430666D01*
X225417712Y-67281344D01*
X225293656Y-67157288D01*
X225144334Y-67065186D01*
X224977797Y-67010001D01*
X224977795Y-67010000D01*
X224875010Y-66999500D01*
X223524998Y-66999500D01*
X223524981Y-66999501D01*
X223422203Y-67010000D01*
X223422200Y-67010001D01*
X223255668Y-67065185D01*
X223255663Y-67065187D01*
X223106342Y-67157289D01*
X222982289Y-67281342D01*
X222890187Y-67430663D01*
X222890186Y-67430666D01*
X222835001Y-67597203D01*
X222835001Y-67597204D01*
X222835000Y-67597204D01*
X222824500Y-67699983D01*
X219419962Y-67699983D01*
X222333126Y-64786819D01*
X222394449Y-64753334D01*
X222420807Y-64750500D01*
X222974142Y-64750500D01*
X223041181Y-64770185D01*
X223074458Y-64801612D01*
X223085586Y-64816928D01*
X223208072Y-64939414D01*
X223348212Y-65041232D01*
X223502555Y-65119873D01*
X223667299Y-65173402D01*
X223838389Y-65200500D01*
X223838390Y-65200500D01*
X224561610Y-65200500D01*
X224561611Y-65200500D01*
X224732701Y-65173402D01*
X224897445Y-65119873D01*
X225051788Y-65041232D01*
X225191928Y-64939414D01*
X225314414Y-64816928D01*
X225416232Y-64676788D01*
X225494873Y-64522445D01*
X225548402Y-64357701D01*
X225575500Y-64186611D01*
X225575500Y-64013389D01*
X225548402Y-63842299D01*
X225494873Y-63677555D01*
X225416232Y-63523212D01*
X225314414Y-63383072D01*
X225191928Y-63260586D01*
X225108975Y-63200317D01*
X225066311Y-63144988D01*
X225060332Y-63075374D01*
X225092938Y-63013579D01*
X225108976Y-62999682D01*
X225191928Y-62939414D01*
X225314414Y-62816928D01*
X225416232Y-62676788D01*
X225494873Y-62522445D01*
X225548402Y-62357701D01*
X225575500Y-62186611D01*
X225575500Y-62013389D01*
X225548402Y-61842299D01*
X225494873Y-61677555D01*
X225416232Y-61523212D01*
X225314414Y-61383072D01*
X225191928Y-61260586D01*
X225108975Y-61200317D01*
X225066311Y-61144988D01*
X225060332Y-61075374D01*
X225092938Y-61013579D01*
X225108976Y-60999682D01*
X225191928Y-60939414D01*
X225314414Y-60816928D01*
X225416232Y-60676788D01*
X225494873Y-60522445D01*
X225548402Y-60357701D01*
X225575500Y-60186611D01*
X225575500Y-60013389D01*
X225548402Y-59842299D01*
X225494873Y-59677555D01*
X225416232Y-59523212D01*
X225314414Y-59383072D01*
X225191928Y-59260586D01*
X225108975Y-59200317D01*
X225066311Y-59144988D01*
X225060332Y-59075374D01*
X225092938Y-59013579D01*
X225108976Y-58999682D01*
X225191928Y-58939414D01*
X225314414Y-58816928D01*
X225416232Y-58676788D01*
X225494873Y-58522445D01*
X225548402Y-58357701D01*
X225575500Y-58186611D01*
X225575500Y-58013389D01*
X225548402Y-57842299D01*
X225494873Y-57677555D01*
X225416232Y-57523212D01*
X225314414Y-57383072D01*
X225191928Y-57260586D01*
X225051788Y-57158768D01*
X224897445Y-57080127D01*
X224732701Y-57026598D01*
X224732699Y-57026597D01*
X224732698Y-57026597D01*
X224601271Y-57005781D01*
X224561611Y-56999500D01*
X223838389Y-56999500D01*
X223798728Y-57005781D01*
X223667302Y-57026597D01*
X223502552Y-57080128D01*
X223348211Y-57158768D01*
X223268256Y-57216859D01*
X223208072Y-57260586D01*
X223208070Y-57260588D01*
X223208069Y-57260588D01*
X223085588Y-57383069D01*
X223085588Y-57383070D01*
X223085586Y-57383072D01*
X223041859Y-57443256D01*
X222983768Y-57523211D01*
X222905128Y-57677552D01*
X222851597Y-57842302D01*
X222824500Y-58013389D01*
X222824500Y-58186611D01*
X222851598Y-58357701D01*
X222905127Y-58522445D01*
X222983768Y-58676788D01*
X223085586Y-58816928D01*
X223208072Y-58939414D01*
X223208078Y-58939418D01*
X223291023Y-58999683D01*
X223333689Y-59055013D01*
X223339667Y-59124626D01*
X223307061Y-59186421D01*
X223291023Y-59200317D01*
X223208078Y-59260581D01*
X223208069Y-59260588D01*
X223085588Y-59383069D01*
X223085588Y-59383070D01*
X223085586Y-59383072D01*
X223041859Y-59443256D01*
X222983768Y-59523211D01*
X222905128Y-59677552D01*
X222851597Y-59842302D01*
X222824500Y-60013389D01*
X222824500Y-60186611D01*
X222851598Y-60357701D01*
X222905127Y-60522445D01*
X222983768Y-60676788D01*
X223085586Y-60816928D01*
X223208072Y-60939414D01*
X223208078Y-60939418D01*
X223291023Y-60999683D01*
X223333689Y-61055013D01*
X223339667Y-61124626D01*
X223307061Y-61186421D01*
X223291023Y-61200317D01*
X223208078Y-61260581D01*
X223208069Y-61260588D01*
X223085585Y-61383072D01*
X223074459Y-61398387D01*
X223019128Y-61441052D01*
X222974142Y-61449500D01*
X220835929Y-61449500D01*
X220710261Y-61474497D01*
X220710255Y-61474499D01*
X220591875Y-61523533D01*
X220591866Y-61523538D01*
X220485331Y-61594723D01*
X220485327Y-61594726D01*
X213594727Y-68485325D01*
X213594726Y-68485326D01*
X213535145Y-68574498D01*
X213523533Y-68591876D01*
X213474499Y-68710255D01*
X213474497Y-68710261D01*
X213449500Y-68835928D01*
X213449500Y-79679191D01*
X213429815Y-79746230D01*
X213413181Y-79766872D01*
X199514727Y-93665325D01*
X199514724Y-93665328D01*
X199470454Y-93731583D01*
X199470455Y-93731584D01*
X199443534Y-93771874D01*
X199394499Y-93890255D01*
X199394497Y-93890261D01*
X199369500Y-94015928D01*
X199369500Y-95878803D01*
X199349815Y-95945842D01*
X199333181Y-95966484D01*
X198875128Y-96424537D01*
X198875115Y-96424551D01*
X198847921Y-96459557D01*
X198791248Y-96500421D01*
X198721478Y-96504158D01*
X198660764Y-96469582D01*
X198652074Y-96459553D01*
X198647240Y-96453331D01*
X198624879Y-96424545D01*
X198624871Y-96424537D01*
X198155462Y-95955128D01*
X198155443Y-95955111D01*
X198088538Y-95903136D01*
X198088537Y-95903135D01*
X197955573Y-95848061D01*
X197955571Y-95848060D01*
X197955570Y-95848060D01*
X197955569Y-95848059D01*
X197955566Y-95848059D01*
X197871500Y-95837500D01*
X197871493Y-95837499D01*
X197088505Y-95837499D01*
X197004433Y-95848059D01*
X197004429Y-95848060D01*
X196871464Y-95903136D01*
X196804545Y-95955121D01*
X196804539Y-95955126D01*
X196335128Y-96424537D01*
X196335115Y-96424551D01*
X196307921Y-96459557D01*
X196251248Y-96500421D01*
X196181478Y-96504158D01*
X196120764Y-96469582D01*
X196112074Y-96459553D01*
X196107240Y-96453331D01*
X196084879Y-96424545D01*
X196084871Y-96424537D01*
X195626819Y-95966485D01*
X195593334Y-95905162D01*
X195590500Y-95878804D01*
X195590500Y-89780806D01*
X195610185Y-89713767D01*
X195626814Y-89693130D01*
X202671476Y-82648467D01*
X202732797Y-82614984D01*
X202778553Y-82613677D01*
X202893142Y-82631825D01*
X202946646Y-82640300D01*
X202946647Y-82640300D01*
X203173353Y-82640300D01*
X203173354Y-82640300D01*
X203397271Y-82604835D01*
X203612883Y-82534779D01*
X203814882Y-82431855D01*
X203998293Y-82298600D01*
X204158600Y-82138293D01*
X204291855Y-81954882D01*
X204394779Y-81752883D01*
X204464835Y-81537271D01*
X204500300Y-81313354D01*
X204500300Y-81086646D01*
X204464835Y-80862729D01*
X204421309Y-80728768D01*
X204394780Y-80647119D01*
X204394779Y-80647116D01*
X204335010Y-80529815D01*
X204291855Y-80445118D01*
X204249579Y-80386930D01*
X204158605Y-80261713D01*
X204158601Y-80261708D01*
X203998291Y-80101398D01*
X203998286Y-80101394D01*
X203814885Y-79968147D01*
X203814884Y-79968146D01*
X203814882Y-79968145D01*
X203750166Y-79935170D01*
X203612883Y-79865220D01*
X203612880Y-79865219D01*
X203397272Y-79795165D01*
X203218636Y-79766872D01*
X203173354Y-79759700D01*
X202946646Y-79759700D01*
X202901364Y-79766872D01*
X202722727Y-79795165D01*
X202507119Y-79865219D01*
X202507116Y-79865220D01*
X202305114Y-79968147D01*
X202121713Y-80101394D01*
X202121708Y-80101398D01*
X201961398Y-80261708D01*
X201961394Y-80261713D01*
X201890318Y-80359542D01*
X201834988Y-80402208D01*
X201765375Y-80408187D01*
X201703580Y-80375582D01*
X201689682Y-80359542D01*
X201618605Y-80261713D01*
X201618601Y-80261708D01*
X201458291Y-80101398D01*
X201458286Y-80101394D01*
X201274885Y-79968147D01*
X201274884Y-79968146D01*
X201274882Y-79968145D01*
X201210166Y-79935170D01*
X201072883Y-79865220D01*
X201072880Y-79865219D01*
X200857272Y-79795165D01*
X200678636Y-79766872D01*
X200633354Y-79759700D01*
X200406646Y-79759700D01*
X200361364Y-79766872D01*
X200182727Y-79795165D01*
X199967119Y-79865219D01*
X199967116Y-79865220D01*
X199765114Y-79968147D01*
X199581713Y-80101394D01*
X199581708Y-80101398D01*
X199421398Y-80261708D01*
X199421394Y-80261713D01*
X199288144Y-80445118D01*
X199288143Y-80445119D01*
X199269456Y-80481795D01*
X199221482Y-80532591D01*
X199158972Y-80549500D01*
X199035929Y-80549500D01*
X198910261Y-80574497D01*
X198910255Y-80574499D01*
X198791874Y-80623534D01*
X198685326Y-80694726D01*
X198685325Y-80694727D01*
X191894724Y-87485329D01*
X191894718Y-87485336D01*
X191876999Y-87511855D01*
X191877000Y-87511856D01*
X191823534Y-87591874D01*
X191774499Y-87710255D01*
X191774497Y-87710261D01*
X191749500Y-87835928D01*
X191749500Y-95878803D01*
X191729815Y-95945842D01*
X191713181Y-95966484D01*
X191255128Y-96424537D01*
X191255115Y-96424551D01*
X191227921Y-96459557D01*
X191171248Y-96500421D01*
X191101478Y-96504158D01*
X191040764Y-96469582D01*
X191032074Y-96459553D01*
X191027240Y-96453331D01*
X191004879Y-96424545D01*
X191004871Y-96424537D01*
X190535462Y-95955128D01*
X190535443Y-95955111D01*
X190468538Y-95903136D01*
X190468537Y-95903135D01*
X190335573Y-95848061D01*
X190335571Y-95848060D01*
X190335570Y-95848060D01*
X190335569Y-95848059D01*
X190335566Y-95848059D01*
X190251500Y-95837500D01*
X190251493Y-95837499D01*
X189468505Y-95837499D01*
X189384433Y-95848059D01*
X189384429Y-95848060D01*
X189251464Y-95903136D01*
X189184545Y-95955121D01*
X189184539Y-95955126D01*
X188715128Y-96424537D01*
X188715115Y-96424551D01*
X188687921Y-96459557D01*
X188631248Y-96500421D01*
X188561478Y-96504158D01*
X188500764Y-96469582D01*
X188492074Y-96459553D01*
X188487240Y-96453331D01*
X188464879Y-96424545D01*
X188464871Y-96424537D01*
X187995462Y-95955128D01*
X187995443Y-95955111D01*
X187928538Y-95903136D01*
X187928537Y-95903135D01*
X187795573Y-95848061D01*
X187795571Y-95848060D01*
X187795570Y-95848060D01*
X187795569Y-95848059D01*
X187795566Y-95848059D01*
X187711500Y-95837500D01*
X187711493Y-95837499D01*
X186928505Y-95837499D01*
X186844433Y-95848059D01*
X186844429Y-95848060D01*
X186711464Y-95903136D01*
X186644545Y-95955121D01*
X186644539Y-95955126D01*
X186175128Y-96424537D01*
X186175115Y-96424551D01*
X186147921Y-96459557D01*
X186091248Y-96500421D01*
X186021478Y-96504158D01*
X185960764Y-96469582D01*
X185952074Y-96459553D01*
X185947240Y-96453331D01*
X185924879Y-96424545D01*
X185924871Y-96424537D01*
X185466819Y-95966485D01*
X185433334Y-95905162D01*
X185430500Y-95878804D01*
X185430500Y-84260806D01*
X185450185Y-84193767D01*
X185466814Y-84173130D01*
X187589979Y-82049964D01*
X187651300Y-82016481D01*
X187720992Y-82021465D01*
X187776925Y-82063337D01*
X187777976Y-82064762D01*
X187831394Y-82138286D01*
X187831398Y-82138291D01*
X187991708Y-82298601D01*
X187991713Y-82298605D01*
X188151684Y-82414829D01*
X188175118Y-82431855D01*
X188249982Y-82470000D01*
X188377116Y-82534779D01*
X188377119Y-82534780D01*
X188484923Y-82569807D01*
X188592729Y-82604835D01*
X188816646Y-82640300D01*
X188816647Y-82640300D01*
X189043353Y-82640300D01*
X189043354Y-82640300D01*
X189267271Y-82604835D01*
X189482883Y-82534779D01*
X189684882Y-82431855D01*
X189868293Y-82298600D01*
X190028600Y-82138293D01*
X190099682Y-82040456D01*
X190155011Y-81997791D01*
X190224624Y-81991812D01*
X190286420Y-82024417D01*
X190300315Y-82040453D01*
X190313770Y-82058971D01*
X190371400Y-82138293D01*
X190531708Y-82298601D01*
X190531713Y-82298605D01*
X190691684Y-82414829D01*
X190715118Y-82431855D01*
X190789982Y-82470000D01*
X190917116Y-82534779D01*
X190917119Y-82534780D01*
X191024923Y-82569807D01*
X191132729Y-82604835D01*
X191356646Y-82640300D01*
X191356647Y-82640300D01*
X191583353Y-82640300D01*
X191583354Y-82640300D01*
X191807271Y-82604835D01*
X192022883Y-82534779D01*
X192224882Y-82431855D01*
X192408293Y-82298600D01*
X192568600Y-82138293D01*
X192701855Y-81954882D01*
X192804779Y-81752883D01*
X192874835Y-81537271D01*
X192910300Y-81313354D01*
X192910300Y-81086646D01*
X192874835Y-80862729D01*
X192831309Y-80728768D01*
X192804780Y-80647119D01*
X192804779Y-80647116D01*
X192745010Y-80529815D01*
X192701855Y-80445118D01*
X192659579Y-80386930D01*
X192568605Y-80261713D01*
X192568601Y-80261708D01*
X192408291Y-80101398D01*
X192408286Y-80101394D01*
X192224883Y-79968145D01*
X192188202Y-79949454D01*
X192137408Y-79901479D01*
X192120500Y-79838971D01*
X192120500Y-79285928D01*
X192095502Y-79160261D01*
X192095501Y-79160260D01*
X192095501Y-79160256D01*
X192046465Y-79041873D01*
X192046464Y-79041872D01*
X192046461Y-79041866D01*
X191975277Y-78935332D01*
X191975276Y-78935331D01*
X191884669Y-78844724D01*
X191754933Y-78714988D01*
X191284674Y-78244727D01*
X191284673Y-78244726D01*
X191252958Y-78223535D01*
X191178127Y-78173535D01*
X191059744Y-78124499D01*
X191059738Y-78124497D01*
X190934071Y-78099500D01*
X190934069Y-78099500D01*
X186935931Y-78099500D01*
X186935929Y-78099500D01*
X186810261Y-78124497D01*
X186810255Y-78124499D01*
X186691874Y-78173534D01*
X186585326Y-78244726D01*
X181694724Y-83135328D01*
X181628310Y-83234726D01*
X181623535Y-83241871D01*
X181574499Y-83360255D01*
X181574497Y-83360261D01*
X181549500Y-83485928D01*
X181549500Y-95918804D01*
X181529815Y-95985843D01*
X181513181Y-96006485D01*
X181095128Y-96424537D01*
X181095115Y-96424551D01*
X181067921Y-96459557D01*
X181011248Y-96500421D01*
X180941478Y-96504158D01*
X180880764Y-96469582D01*
X180872074Y-96459553D01*
X180867240Y-96453331D01*
X180844879Y-96424545D01*
X180844871Y-96424537D01*
X180386819Y-95966485D01*
X180353334Y-95905162D01*
X180350500Y-95878804D01*
X180350500Y-86185928D01*
X180325502Y-86060261D01*
X180325501Y-86060260D01*
X180325501Y-86060256D01*
X180276465Y-85941873D01*
X180237485Y-85883535D01*
X180221381Y-85859433D01*
X180205279Y-85835333D01*
X180205277Y-85835331D01*
X172664674Y-78294727D01*
X172664673Y-78294726D01*
X172592928Y-78246788D01*
X172558127Y-78223535D01*
X172439744Y-78174499D01*
X172439742Y-78174498D01*
X172439741Y-78174498D01*
X172434903Y-78173536D01*
X172434898Y-78173535D01*
X172314071Y-78149500D01*
X172314069Y-78149500D01*
X168835931Y-78149500D01*
X168835929Y-78149500D01*
X168715102Y-78173535D01*
X168715097Y-78173536D01*
X168710258Y-78174498D01*
X168710257Y-78174498D01*
X168591874Y-78223534D01*
X168485326Y-78294726D01*
X167354726Y-79425326D01*
X167283534Y-79531874D01*
X167234499Y-79650255D01*
X167234497Y-79650261D01*
X167209500Y-79775928D01*
X167209500Y-79838971D01*
X167189815Y-79906010D01*
X167141798Y-79949454D01*
X167105116Y-79968145D01*
X166921713Y-80101394D01*
X166921708Y-80101398D01*
X166761398Y-80261708D01*
X166761394Y-80261713D01*
X166628147Y-80445114D01*
X166525220Y-80647116D01*
X166525219Y-80647119D01*
X166455165Y-80862727D01*
X166419700Y-81086646D01*
X163040300Y-81086646D01*
X163004835Y-80862729D01*
X162961309Y-80728768D01*
X162934780Y-80647119D01*
X162934779Y-80647116D01*
X162875010Y-80529815D01*
X162831855Y-80445118D01*
X162789579Y-80386930D01*
X162698605Y-80261713D01*
X162698601Y-80261708D01*
X162538291Y-80101398D01*
X162538286Y-80101394D01*
X162354885Y-79968147D01*
X162354884Y-79968146D01*
X162354882Y-79968145D01*
X162290166Y-79935170D01*
X162152883Y-79865220D01*
X162152880Y-79865219D01*
X161937272Y-79795165D01*
X161758636Y-79766872D01*
X161713354Y-79759700D01*
X161486646Y-79759700D01*
X161441364Y-79766872D01*
X161262727Y-79795165D01*
X161047119Y-79865219D01*
X161047116Y-79865220D01*
X160845114Y-79968147D01*
X160661713Y-80101394D01*
X160661708Y-80101398D01*
X160501398Y-80261708D01*
X160501394Y-80261713D01*
X160368147Y-80445114D01*
X160265220Y-80647116D01*
X160265219Y-80647119D01*
X160195165Y-80862727D01*
X160159700Y-81086646D01*
X160159700Y-81313353D01*
X160195165Y-81537272D01*
X160265219Y-81752880D01*
X160265220Y-81752883D01*
X160368147Y-81954885D01*
X160501394Y-82138286D01*
X160501398Y-82138291D01*
X160661708Y-82298601D01*
X160661713Y-82298605D01*
X160759542Y-82369682D01*
X160802208Y-82425012D01*
X160808187Y-82494625D01*
X160775582Y-82556420D01*
X160759542Y-82570318D01*
X160661713Y-82641394D01*
X160661708Y-82641398D01*
X160501398Y-82801708D01*
X160501394Y-82801713D01*
X160368144Y-82985118D01*
X160368143Y-82985119D01*
X160349456Y-83021795D01*
X160301482Y-83072591D01*
X160238972Y-83089500D01*
X159365929Y-83089500D01*
X159240261Y-83114497D01*
X159240257Y-83114498D01*
X159214236Y-83125277D01*
X159214235Y-83125277D01*
X159121881Y-83163530D01*
X159121863Y-83163540D01*
X159015332Y-83234721D01*
X159015327Y-83234726D01*
X155484727Y-86765325D01*
X155484724Y-86765328D01*
X155439586Y-86832882D01*
X155439587Y-86832883D01*
X155413534Y-86871874D01*
X155364499Y-86990255D01*
X155364497Y-86990261D01*
X155339500Y-87115928D01*
X130500500Y-87115928D01*
X130500500Y-54965258D01*
X204469500Y-54965258D01*
X204469500Y-55194741D01*
X204470499Y-55202325D01*
X204499452Y-55422238D01*
X204499453Y-55422240D01*
X204558842Y-55643887D01*
X204646650Y-55855876D01*
X204646657Y-55855890D01*
X204761392Y-56054617D01*
X204901081Y-56236661D01*
X204901089Y-56236670D01*
X205063330Y-56398911D01*
X205063338Y-56398918D01*
X205245382Y-56538607D01*
X205245385Y-56538608D01*
X205245388Y-56538611D01*
X205444112Y-56653344D01*
X205444117Y-56653346D01*
X205444123Y-56653349D01*
X205526678Y-56687544D01*
X205656113Y-56741158D01*
X205877762Y-56800548D01*
X206094312Y-56829057D01*
X206105250Y-56830498D01*
X206105266Y-56830500D01*
X206105273Y-56830500D01*
X206334727Y-56830500D01*
X206334734Y-56830500D01*
X206562238Y-56800548D01*
X206783887Y-56741158D01*
X206995888Y-56653344D01*
X207194612Y-56538611D01*
X207376661Y-56398919D01*
X207376665Y-56398914D01*
X207376670Y-56398911D01*
X207538911Y-56236670D01*
X207538914Y-56236665D01*
X207538919Y-56236661D01*
X207678611Y-56054612D01*
X207738115Y-55951546D01*
X207788679Y-55903334D01*
X207857286Y-55890110D01*
X207922151Y-55916078D01*
X207962680Y-55972992D01*
X207969500Y-56013549D01*
X207969500Y-56377869D01*
X207969501Y-56377876D01*
X207975908Y-56437483D01*
X208026202Y-56572328D01*
X208026206Y-56572335D01*
X208112452Y-56687544D01*
X208112455Y-56687547D01*
X208227664Y-56773793D01*
X208227671Y-56773797D01*
X208362517Y-56824091D01*
X208362516Y-56824091D01*
X208369444Y-56824835D01*
X208422127Y-56830500D01*
X211017872Y-56830499D01*
X211077483Y-56824091D01*
X211212331Y-56773796D01*
X211327546Y-56687546D01*
X211413796Y-56572331D01*
X211464091Y-56437483D01*
X211470500Y-56377873D01*
X211470499Y-54965258D01*
X212579500Y-54965258D01*
X212579500Y-55194741D01*
X212580499Y-55202325D01*
X212609452Y-55422238D01*
X212609453Y-55422240D01*
X212668842Y-55643887D01*
X212756650Y-55855876D01*
X212756657Y-55855890D01*
X212871392Y-56054617D01*
X213011081Y-56236661D01*
X213011089Y-56236670D01*
X213173330Y-56398911D01*
X213173338Y-56398918D01*
X213355382Y-56538607D01*
X213355385Y-56538608D01*
X213355388Y-56538611D01*
X213554112Y-56653344D01*
X213554117Y-56653346D01*
X213554123Y-56653349D01*
X213636678Y-56687544D01*
X213766113Y-56741158D01*
X213987762Y-56800548D01*
X214204312Y-56829057D01*
X214215250Y-56830498D01*
X214215266Y-56830500D01*
X214215273Y-56830500D01*
X214444727Y-56830500D01*
X214444734Y-56830500D01*
X214672238Y-56800548D01*
X214893887Y-56741158D01*
X215105888Y-56653344D01*
X215304612Y-56538611D01*
X215486661Y-56398919D01*
X215486665Y-56398914D01*
X215486670Y-56398911D01*
X215648911Y-56236670D01*
X215648914Y-56236665D01*
X215648919Y-56236661D01*
X215788611Y-56054612D01*
X215848115Y-55951546D01*
X215898679Y-55903334D01*
X215967286Y-55890110D01*
X216032151Y-55916078D01*
X216072680Y-55972992D01*
X216079500Y-56013549D01*
X216079500Y-56377869D01*
X216079501Y-56377876D01*
X216085908Y-56437483D01*
X216136202Y-56572328D01*
X216136206Y-56572335D01*
X216222452Y-56687544D01*
X216222455Y-56687547D01*
X216337664Y-56773793D01*
X216337671Y-56773797D01*
X216472517Y-56824091D01*
X216472516Y-56824091D01*
X216479444Y-56824835D01*
X216532127Y-56830500D01*
X219127872Y-56830499D01*
X219187483Y-56824091D01*
X219322331Y-56773796D01*
X219437546Y-56687546D01*
X219523796Y-56572331D01*
X219574091Y-56437483D01*
X219580500Y-56377873D01*
X219580499Y-53782128D01*
X219574091Y-53722517D01*
X219523796Y-53587669D01*
X219523795Y-53587668D01*
X219523793Y-53587664D01*
X219437547Y-53472455D01*
X219437544Y-53472452D01*
X219322335Y-53386206D01*
X219322328Y-53386202D01*
X219187482Y-53335908D01*
X219187483Y-53335908D01*
X219127883Y-53329501D01*
X219127881Y-53329500D01*
X219127873Y-53329500D01*
X219127864Y-53329500D01*
X216532129Y-53329500D01*
X216532123Y-53329501D01*
X216472516Y-53335908D01*
X216337671Y-53386202D01*
X216337664Y-53386206D01*
X216222455Y-53472452D01*
X216222452Y-53472455D01*
X216136206Y-53587664D01*
X216136202Y-53587671D01*
X216085908Y-53722517D01*
X216079501Y-53782116D01*
X216079501Y-53782123D01*
X216079500Y-53782135D01*
X216079500Y-54146449D01*
X216059815Y-54213488D01*
X216007011Y-54259243D01*
X215937853Y-54269187D01*
X215874297Y-54240162D01*
X215848113Y-54208449D01*
X215788611Y-54105388D01*
X215788608Y-54105385D01*
X215788607Y-54105382D01*
X215648918Y-53923338D01*
X215648911Y-53923330D01*
X215486670Y-53761089D01*
X215486661Y-53761081D01*
X215304617Y-53621392D01*
X215246210Y-53587671D01*
X215105888Y-53506656D01*
X215105876Y-53506650D01*
X214893887Y-53418842D01*
X214672238Y-53359452D01*
X214634215Y-53354446D01*
X214444741Y-53329500D01*
X214444734Y-53329500D01*
X214215266Y-53329500D01*
X214215258Y-53329500D01*
X213998715Y-53358009D01*
X213987762Y-53359452D01*
X213894076Y-53384554D01*
X213766112Y-53418842D01*
X213554123Y-53506650D01*
X213554109Y-53506657D01*
X213355382Y-53621392D01*
X213173338Y-53761081D01*
X213011081Y-53923338D01*
X212871392Y-54105382D01*
X212756657Y-54304109D01*
X212756650Y-54304123D01*
X212668842Y-54516112D01*
X212609453Y-54737759D01*
X212609451Y-54737770D01*
X212579500Y-54965258D01*
X211470499Y-54965258D01*
X211470499Y-53782128D01*
X211464091Y-53722517D01*
X211413796Y-53587669D01*
X211413795Y-53587668D01*
X211413793Y-53587664D01*
X211327547Y-53472455D01*
X211327544Y-53472452D01*
X211212335Y-53386206D01*
X211212328Y-53386202D01*
X211077482Y-53335908D01*
X211077483Y-53335908D01*
X211017883Y-53329501D01*
X211017881Y-53329500D01*
X211017873Y-53329500D01*
X211017864Y-53329500D01*
X208422129Y-53329500D01*
X208422123Y-53329501D01*
X208362516Y-53335908D01*
X208227671Y-53386202D01*
X208227664Y-53386206D01*
X208112455Y-53472452D01*
X208112452Y-53472455D01*
X208026206Y-53587664D01*
X208026202Y-53587671D01*
X207975908Y-53722517D01*
X207969501Y-53782116D01*
X207969501Y-53782123D01*
X207969500Y-53782135D01*
X207969500Y-54146449D01*
X207949815Y-54213488D01*
X207897011Y-54259243D01*
X207827853Y-54269187D01*
X207764297Y-54240162D01*
X207738113Y-54208449D01*
X207678611Y-54105388D01*
X207678608Y-54105385D01*
X207678607Y-54105382D01*
X207538918Y-53923338D01*
X207538911Y-53923330D01*
X207376670Y-53761089D01*
X207376661Y-53761081D01*
X207194617Y-53621392D01*
X207136210Y-53587671D01*
X206995888Y-53506656D01*
X206995876Y-53506650D01*
X206783887Y-53418842D01*
X206562238Y-53359452D01*
X206524215Y-53354446D01*
X206334741Y-53329500D01*
X206334734Y-53329500D01*
X206105266Y-53329500D01*
X206105258Y-53329500D01*
X205888715Y-53358009D01*
X205877762Y-53359452D01*
X205784076Y-53384554D01*
X205656112Y-53418842D01*
X205444123Y-53506650D01*
X205444109Y-53506657D01*
X205245382Y-53621392D01*
X205063338Y-53761081D01*
X204901081Y-53923338D01*
X204761392Y-54105382D01*
X204646657Y-54304109D01*
X204646650Y-54304123D01*
X204558842Y-54516112D01*
X204499453Y-54737759D01*
X204499451Y-54737770D01*
X204469500Y-54965258D01*
X130500500Y-54965258D01*
X130500500Y-50624500D01*
X130520185Y-50557461D01*
X130572989Y-50511706D01*
X130624500Y-50500500D01*
X229375500Y-50500500D01*
X229442539Y-50520185D01*
G37*
%TD.AperFunction*%
%TD*%
M02*
