%TF.GenerationSoftware,KiCad,Pcbnew,9.0.7*%
%TF.CreationDate,2026-08-23T19:54:50+07:00*%
%TF.ProjectId,Stm32,53746d33-322e-46b6-9963-61645f706362,rev?*%
%TF.SameCoordinates,Original*%
%TF.FileFunction,Soldermask,Top*%
%TF.FilePolarity,Negative*%
%FSLAX46Y46*%
G04 Gerber Fmt 4.6, Leading zero omitted, Abs format (unit mm)*
G04 Created by KiCad (PCBNEW 9.0.7) date 2026-08-23 19:54:50*
%MOMM*%
%LPD*%
G01*
G04 APERTURE LIST*
G04 Aperture macros list*
%AMRoundRect*
0 Rectangle with rounded corners*
0 $1 Rounding radius*
0 $2 $3 $4 $5 $6 $7 $8 $9 X,Y pos of 4 corners*
0 Add a 4 corners polygon primitive as box body*
4,1,4,$2,$3,$4,$5,$6,$7,$8,$9,$2,$3,0*
0 Add four circle primitives for the rounded corners*
1,1,$1+$1,$2,$3*
1,1,$1+$1,$4,$5*
1,1,$1+$1,$6,$7*
1,1,$1+$1,$8,$9*
0 Add four rect primitives between the rounded corners*
20,1,$1+$1,$2,$3,$4,$5,0*
20,1,$1+$1,$4,$5,$6,$7,0*
20,1,$1+$1,$6,$7,$8,$9,0*
20,1,$1+$1,$8,$9,$2,$3,0*%
%AMOutline4P*
0 Free polygon, 4 corners , with rotation*
0 The origin of the aperture is its center*
0 number of corners: always 4*
0 $1 to $8 corner X, Y*
0 $9 Rotation angle, in degrees counterclockwise*
0 create outline with 4 corners*
4,1,4,$1,$2,$3,$4,$5,$6,$7,$8,$1,$2,$9*%
%AMOutline5P*
0 Free polygon, 5 corners , with rotation*
0 The origin of the aperture is its center*
0 number of corners: always 5*
0 $1 to $10 corner X, Y*
0 $11 Rotation angle, in degrees counterclockwise*
0 create outline with 5 corners*
4,1,5,$1,$2,$3,$4,$5,$6,$7,$8,$9,$10,$1,$2,$11*%
%AMOutline6P*
0 Free polygon, 6 corners , with rotation*
0 The origin of the aperture is its center*
0 number of corners: always 6*
0 $1 to $12 corner X, Y*
0 $13 Rotation angle, in degrees counterclockwise*
0 create outline with 6 corners*
4,1,6,$1,$2,$3,$4,$5,$6,$7,$8,$9,$10,$11,$12,$1,$2,$13*%
%AMOutline7P*
0 Free polygon, 7 corners , with rotation*
0 The origin of the aperture is its center*
0 number of corners: always 7*
0 $1 to $14 corner X, Y*
0 $15 Rotation angle, in degrees counterclockwise*
0 create outline with 7 corners*
4,1,7,$1,$2,$3,$4,$5,$6,$7,$8,$9,$10,$11,$12,$13,$14,$1,$2,$15*%
%AMOutline8P*
0 Free polygon, 8 corners , with rotation*
0 The origin of the aperture is its center*
0 number of corners: always 8*
0 $1 to $16 corner X, Y*
0 $17 Rotation angle, in degrees counterclockwise*
0 create outline with 8 corners*
4,1,8,$1,$2,$3,$4,$5,$6,$7,$8,$9,$10,$11,$12,$13,$14,$15,$16,$1,$2,$17*%
G04 Aperture macros list end*
%ADD10R,1.700000X1.700000*%
%ADD11C,1.700000*%
%ADD12Outline4P,-0.762000X0.762000X0.762000X0.762000X0.762000X-0.762000X-0.762000X-0.762000X90.000000*%
%ADD13Outline8P,-0.762000X0.350520X-0.350520X0.762000X0.350520X0.762000X0.762000X0.350520X0.762000X-0.350520X0.350520X-0.762000X-0.350520X-0.762000X-0.762000X-0.350520X90.000000*%
%ADD14C,1.879600*%
%ADD15R,2.500000X2.500000*%
%ADD16C,2.500000*%
%ADD17RoundRect,0.250000X0.625000X-0.350000X0.625000X0.350000X-0.625000X0.350000X-0.625000X-0.350000X0*%
%ADD18O,1.750000X1.200000*%
%ADD19C,1.600000*%
G04 APERTURE END LIST*
D10*
%TO.C,J8*%
X133260000Y-95790000D03*
D11*
X133260000Y-98330000D03*
X133260000Y-100870000D03*
X133260000Y-103410000D03*
X133260000Y-105950000D03*
X133260000Y-108490000D03*
X133260000Y-111030000D03*
X133260000Y-113570000D03*
%TD*%
D12*
%TO.C,U1*%
X164460000Y-112340000D03*
D13*
X167000000Y-112340000D03*
X169540000Y-112340000D03*
X172080000Y-112340000D03*
X174620000Y-112340000D03*
X177160000Y-112340000D03*
X179700000Y-112340000D03*
X182240000Y-112340000D03*
X184780000Y-112340000D03*
X187320000Y-112340000D03*
X189860000Y-112340000D03*
X192400000Y-112340000D03*
X194940000Y-112340000D03*
X197480000Y-112340000D03*
X200020000Y-112340000D03*
X202560000Y-112340000D03*
X205100000Y-112340000D03*
X207640000Y-112340000D03*
X210180000Y-112340000D03*
X212720000Y-112340000D03*
X212720000Y-97100000D03*
X210180000Y-97100000D03*
X207640000Y-97100000D03*
X205100000Y-97100000D03*
X202560000Y-97100000D03*
X200020000Y-97100000D03*
X197480000Y-97100000D03*
X194940000Y-97100000D03*
X192400000Y-97100000D03*
X189860000Y-97100000D03*
X187320000Y-97100000D03*
X184780000Y-97100000D03*
X182240000Y-97100000D03*
X179700000Y-97100000D03*
X177160000Y-97100000D03*
X174620000Y-97100000D03*
X172080000Y-97100000D03*
X169540000Y-97100000D03*
X167000000Y-97100000D03*
X164460000Y-97100000D03*
%TD*%
D14*
%TO.C,J5*%
X200520000Y-81200000D03*
X203060000Y-81200000D03*
X205600000Y-81200000D03*
%TD*%
D15*
%TO.C,J11*%
X209720000Y-55080000D03*
D16*
X206220000Y-55080000D03*
%TD*%
D14*
%TO.C,J6*%
X188930000Y-81200000D03*
X191470000Y-81200000D03*
%TD*%
D17*
%TO.C,J3*%
X224200000Y-68100000D03*
D18*
X224200000Y-66100000D03*
X224200000Y-64100000D03*
X224200000Y-62100000D03*
X224200000Y-60100000D03*
X224200000Y-58100000D03*
%TD*%
D14*
%TO.C,J1*%
X161600000Y-81200000D03*
X161600000Y-83740000D03*
X161600000Y-86280000D03*
X161600000Y-88820000D03*
%TD*%
D17*
%TO.C,J4*%
X224200000Y-85670000D03*
D18*
X224200000Y-83670000D03*
X224200000Y-81670000D03*
X224200000Y-79670000D03*
X224200000Y-77670000D03*
X224200000Y-75670000D03*
%TD*%
D15*
%TO.C,J2*%
X217830000Y-55080000D03*
D16*
X214330000Y-55080000D03*
%TD*%
D19*
%TO.C,J10*%
X223600000Y-92210000D03*
X223600000Y-94210000D03*
X223600000Y-96210000D03*
%TD*%
D14*
%TO.C,J7*%
X167860000Y-81200000D03*
X170400000Y-81200000D03*
%TD*%
M02*
